<mxfile host="app.diagrams.net" modified="2021-04-01T14:19:53.559Z" agent="5.0 (Windows NT 10.0; WOW64) AppleWebKit/537.36 (KHTML, like Gecko) Chrome/78.0.3904.108 Safari/537.36" etag="_T-6k3bTUKaxNzE200Km" version="14.5.4" type="github">
  <diagram id="uNhbeHN_YKukI16IZ3Rf" name="Page-1">
    <mxGraphModel dx="1422" dy="761" grid="1" gridSize="10" guides="1" tooltips="1" connect="1" arrows="1" fold="1" page="1" pageScale="1" pageWidth="827" pageHeight="1169" math="0" shadow="0">
      <root>
        <mxCell id="0" />
        <mxCell id="1" parent="0" />
        <mxCell id="eN-WV_VvRqyreEzH0uXg-94" value="" style="rounded=1;whiteSpace=wrap;html=1;shadow=0;glass=0;sketch=0;fontSize=9;dashed=1;strokeColor=#BABABA;" parent="1" vertex="1">
          <mxGeometry x="190" y="408" width="430" height="15" as="geometry" />
        </mxCell>
        <mxCell id="eN-WV_VvRqyreEzH0uXg-80" value="" style="rounded=1;whiteSpace=wrap;html=1;shadow=0;glass=0;sketch=0;fontSize=9;dashed=1;strokeColor=#BABABA;" parent="1" vertex="1">
          <mxGeometry x="190" y="280" width="430" height="50" as="geometry" />
        </mxCell>
        <mxCell id="eN-WV_VvRqyreEzH0uXg-79" value="" style="rounded=1;whiteSpace=wrap;html=1;shadow=0;glass=0;sketch=0;fontSize=9;dashed=1;strokeColor=#BABABA;" parent="1" vertex="1">
          <mxGeometry x="190" y="340" width="430" height="50" as="geometry" />
        </mxCell>
        <mxCell id="eN-WV_VvRqyreEzH0uXg-78" value="" style="rounded=1;whiteSpace=wrap;html=1;shadow=0;glass=0;sketch=0;fontSize=9;dashed=1;strokeColor=#BABABA;" parent="1" vertex="1">
          <mxGeometry x="190" y="437" width="430" height="106" as="geometry" />
        </mxCell>
        <mxCell id="eN-WV_VvRqyreEzH0uXg-65" style="edgeStyle=none;rounded=0;orthogonalLoop=1;jettySize=auto;html=1;exitX=0.5;exitY=1;exitDx=0;exitDy=0;entryX=0.5;entryY=0;entryDx=0;entryDy=0;endArrow=classic;endFill=1;fontSize=9;" parent="1" source="eN-WV_VvRqyreEzH0uXg-1" target="eN-WV_VvRqyreEzH0uXg-9" edge="1">
          <mxGeometry relative="1" as="geometry" />
        </mxCell>
        <mxCell id="eN-WV_VvRqyreEzH0uXg-1" value="beat" style="rounded=1;whiteSpace=wrap;html=1;fillColor=#d5e8d4;strokeColor=#82b366;" parent="1" vertex="1">
          <mxGeometry x="210" y="285" width="50" height="40" as="geometry" />
        </mxCell>
        <mxCell id="eN-WV_VvRqyreEzH0uXg-131" style="edgeStyle=none;rounded=0;orthogonalLoop=1;jettySize=auto;html=1;entryX=0.5;entryY=0;entryDx=0;entryDy=0;startArrow=none;startFill=0;endArrow=classic;endFill=1;fontSize=9;" parent="1" source="eN-WV_VvRqyreEzH0uXg-2" target="eN-WV_VvRqyreEzH0uXg-130" edge="1">
          <mxGeometry relative="1" as="geometry" />
        </mxCell>
        <mxCell id="eN-WV_VvRqyreEzH0uXg-2" value="" style="shape=image;verticalLabelPosition=bottom;labelBackgroundColor=#ffffff;verticalAlign=top;aspect=fixed;imageAspect=0;image=data:image/png,iVBORw0KGgoAAAANSUhEUgAAAwYAAADuCAYAAACDORCmAAAgAElEQVR4Aey9B3hcxbn//131YlmWZMvdxt3GHUzoppOElpBAQgqE3LSb8iP55yaBlJt2U0hIB5LcFBLSQwKECwkJxUDoGGMb44K7LDfZlizJVi/7fz6zOvJqvbs6cyyL3dXM80i7e87MvO985523zMyZEwqHw2G55BBwCDgEHAIOAYeAQ8Ah4BBwCAxpBLKGdOtd4x0CDgGHgEPAIeAQcAg4BBwCDgGDgAsMnCA4BBwCDgGHgEPAIeAQcAg4BBwCcoGBEwKHgEPAIeAQcAg4BBwCDgGHgEPABQZOBhwCDgGHgEPAIeAQcAg4BBwCDgEpZ1BB2LxZOnw4EMm2rmxTLj+7K1D5dCpU21yoiqKWdGLZmlceeW/qyFVRbqeyQpn5/HtXd0itnTkqyutQyBqh9CjQ2Z0lxmZxbkd6MByAy/auLHWHQyrIyXzd09Cab+Q1N6s7AFKvbRH0SUF2p7KzMlOfHAu6HV1Zau7IVWlB27FUk1ZlWzpzjN4tyOlMK75tmR0K7TzUnqdhee0Za0cb2vJVmp9kbBYUSNOmSbm5tuIRKP/gBgb//rc0apRUWmrHbH291q3OUueosTrlxCb/Zbu6pJoaacwYKcty11RVlTR5sn9aXs7GRom/CRO8K/4/q6ulsWP1pe9N1W2fqfFfbs8eaeTIYELz8svSggX+aXk5wQdc8/O9K/4+6+pMmbbcEv3fY2W65MzDGjHMp8O1Zo00f74/OtG5DhyI9H95efTV/r8fOiR1dEi25aj51VdVN3qeli0v0VvPP6ycbJ+O1sGDUnu7NHp0//xF54DP/fuDyfq2bdKUKdG1+fve0KCabe16tm6W3nLeIbsAb+fOCK85lipo165IuezIRIE/RhWZkKitDTSmN/67Tg3DJ+jMRc2+yZmM9MewYVJhoV05cq9eLS1caF9u+/aI7NjSbGgwtH5+/2xded4hTRvf6p/2+vXSnDn+83s5t26N9GVRkXfF32dLi8TYrKzszU/g9uBjZTpjQYvGjWzvvX7Uly1bIgb2qBv9XACf5majn/vJ2fc2NmjvXmn8+L7X/fzasUOaOFEKWU4rgA16ZNKkXirbqgt072OFuvG6/b3X4n7BBqHXbR0Q7OyIEfb2oKkpYqOnTo3LTtKLyPrYsQlpPvVCqYoLunTGgpjJSGwQ7SspSVr9UTeRO/oyiK5E1uHVdlyCT2urVFFxFDvehWeWDxfq8NyTGr1Lkc+NG6WZM/te8/MLe4Cfhu6ySdggbC3ttE39+Ft/+b+Ruu7SOHb0WPytfmgmbMLu3RF8bMcIk+LYhDjy87+/GaPPXBfTf9EMPPNMRIfY0oyuw+K7pVW2qDlRVoxdlMJKlK3P9e3b1bqrXp1zF0ln97mT/Edbm4QzieObl5c8b+zdJ5+UzrYh1lMBjgvK9bTTYmvs//dzzxlnYF9RobT0hP7zezlWrpRmzZJsDSzlEfKlS72a/H+Cz6JF9sp10yYTGIZLKnV4qxQ+XVKZT7JBeUVBEhhOn+6TUE826KGUgxitxkZ1LTldTQek7jMl+RU/DAjGwDYAwmnBQWN82TrbOC9BZKC6Wp3te3V4+LzIuPQbe7NctHx5ZFwyE2KTKEcbbcczwTMrlgHGdNv65Wo5YZG01FJd0h8EeEECS5zCIH0Ctui7Mr+Dqgd86Emqf36SOk+SNMuiU3C0gvCKI0FfMqlhk6CHIxoVjIS7pMPbpM4lko74w0fXik0Iwiv4EFguXnx0ncmuEOQT5J1ySrJc8e89+6x06qn2k1rYIJyeM87orbdznVT/iqSlM3qvxf2CA4Jet7Ul2Fkm0oYPj1ttwov79kmvvBKsTwiYkPUEE40t9VI2vm2seUPHonfGjUvIVtwbyB19GUR+0LHwmsTBj0sTfAhKZyTut5ZGmcDgqHZiR4Lw2t0tzZ4dCRDjMpXgIjbo1VftxwjV9eNvNb4khc+SFDthjqwzycQ4sU390ExYXVB/C521YUPcPjn4IHKaJIhjjAxi8mvKB5ElR8oh4BBwCDgEHAIOAYeAQ8Ah4BAYbARcYDDYiDt6DgGHgEPAIeAQcAg4BBwCDoEURMAFBinYKY4lh4BDwCHgEHAIOAQcAg4Bh8BgI+ACg8FG3NFzCDgEHAIOAYeAQ8Ah4BBwCKQgAi4wSMFOcSw5BBwCDgGHgEPAIeAQcAg4BAYbARcYDDbijp5DwCHgEHAIOAQcAg4Bh4BDIAURcIFBCnaKY8kh4BBwCDgEHAIOAYeAQ8AhMNgIuMBgsBF39BwCDgGHgEPAIeAQcAg4BBwCKYiACwxSsFMcSw4Bh4BDwCHgEHAIOAQcAg6BwUbABQaDjbij5xBwCDgEHAIOAYeAQ8Ah4BBIQQRcYJCCneJYcgg4BBwCDgGHgEPAIeAQcAgMNgI5g01QbW1Sc7Md2dZWqatL4rO5239Z8re3Sy0tUmen/3Lk7Oiw55Ny0ApaFl6bmqTOPKm5zT+/lLPF1KsdXIKU9dqYne3V5O+TPsnLk7KapLZchZs6pXx/RY0MBOEVmcvKsm8nvBqZs5RXmtPZqXBzs8Jt2RJt7Az5ayS8Bhkj4EKfID+5uf5oebm8vvR++/30ZL29LdKP2T7b2N0dGZfwzHeb1DtGLMezx2sQ+ensUsj0SbsNp5F+hG4Qmui7IOXoS2jm+x1UPU1CzkmmPDoh3HPDx8ex6JAg+FAmdlx2haX2nIh9SMZ7UFmHXpBxSZmg+tkrh+6ySfFotoSkDvDpSF5TUHw8bHIsXQr6MihND58E+i6E7s0JH+0zeLJuO77gNaise7wWFibHP/ZuPFmPzUM7McPNXX3vHAuvseOrb83xf4Gn1874ORJf7U8GzNjulGJNG/gcL5qJuEXWoWubkuHTkdv/2LSldwz5LUfxMVDyim7ZIu3f7/3y91lfLx1gkG+Wihv9lSEXA6OmJuJ82CrXPXukVav80/JyHjokHTwo2TrMlN+9O1JLw1xp1atejf1/Uo6BnEBBJq2gsTFYO/fujTjbOPk26cABqaBAyt2j0K7RCq09IJX0Y6y8+hsagvFaWxupgfI2CWyQIeTPNh04oNC6dQrtLJfW7JNyfDrAyI5n2G1oolgZV/BrK+uMkSCyDp772hXav1Ohl/dJIQtnctcuKRy2HydeOds2Hj4sIXsB2hmqq5c6t0mrLHQPfbdvn4Ts2ToDlEWPBOBV3rhkjNkkT8b3FUuv7rcLSpDZILyCD45kUZENpxGjDD5RxjkUDilUXSltaJDqeoKceLVCMwiv4EPQbRvIkh/9HPIZNEfzTLkgOh1s6ur6tDNUVazwvpHSqqpoCkd/x+6RbOkid9C1DUjBNGifeLKeiOb2CqmwSxoRo7/BBrmjvE1C3igTRH7QsdC01QXoLWw72CZK28oVIjBYVdc3R0B9Z3wmavL8kb61Jv7l2SAmNWxTf/7W7nHSy3ul7Bg7io1mbAbxt/qjmagN4EIwYhsE05eJZH3f5P7HZiJ+jsP1wQ8MTjxRmjTJrinbt0tV9dLcedIZFkVxsNaskRYsiMxSWxQ1s9Nn2BDrqRzHpbpaOu00G2qRvDg7CxdKFYWSDe2VK6VZs+wNLFR37LCj5bWKwb9okVRS4l3x97lpk1RaKpVUKrxJ0uumSGX+igbmdePGiLM8fbpPQj3ZUAAo5alT7cqRG+OzZIm0T9JpUyW/8dPWrREHZP58O5rMRqxfH5EfW4XFOLGRN48z5Lx5r8LDp0mnT5P8TmwSEMAj49LWgV2+PNJG24AUI7B5c6B2htcsV/iE2dIZluqS/hg9Wiov9xDz/4kcBOkTjDO4lvkdVD0soQdIz4yXFo2XZvVc9/OBsQvCK44W+m7kSD9UjuRhbOFozZnTey3cpYg+OUlSMvOCIxqEV/AhyFu8uJemry84EKtXS6ec4it7n0wEE6eeah/oY4Oqqvq0MzxCCr0s6YzxfUjE/YFetw3WsLOTJ0vDh8etMuFFZAenLkifYIOQdexJnBQ+IGkYbY65ydhC74wbF3Ojn5/IHTY6CK/oWHitqOiHSMxt8GECZsaMmBtRP+ukMIFBbDspF4RXZHb2bGnMmCgiPr5ig1591X6MUDV9mYzXF7CjJxy9YoCs79wZGSc+WOyTpT+afTJH/Qjqb6GzNmyI3877+xmbQYLRKJZtv/o15bb1uvzHgMBhIsshkJqbm9XF4HTJIeAQSAkE9uGIuOQQcAg4BBwCQxYBFxikYNdvZmZzCKS1a9eqiRk8lxwCDoGUQODVV19VNStBLjkE0hyB7u5utURtN0vz5iRkv62tTUyyueQQGCgEXGAwUEgOUD3t7e2qra3NeOMcDodNUIDyzuTU0NCgTG9jJvef1zbkdSik1tZW7WRpPg0TutOtQMbvOHDpYJvZEEpVVVUaCitgjNcNbFHJ4IRe4s+lwUHABQaDg7NvKps2bRJOSKYPAoz4/v37hfLO1IQxXr16tWhrpiZmqzJ91edwU7Makj38l0Gde+DAAaXrVsZt27bpIA9Cu3QUAvQrumgoJdqcybo3ui/TdcxGtyHZd9q3YsWKZFncvQFEIG0Cg0OHDqmRJ9AzPKHI8vPzMz4w8LoxXWcnPf6TfdKXGKdMnm0mMNi1a1dGt7G9s0OtPDw4BBKymo7bEuCbLZjIo0tHI8BEE4HTUErMog+VwGA7B7RkcGJLWCZvC6vjwfYUSmkTGByorx8SzjJGuaioKOO3EqXQGDhurLBiwFJ2Jm8lwiHDKGVyGzdUV2sLxyy7lLIIIIeZvsp6LOAzPoeKk+zhhCNZ7x3D613MwE8mTDs5pjqDE+M7k1cD2T6eSiltAoOte/cqFOQs6FRC2wcvW7duVZ7tUYw+6nVZXhsEME4otUxNGKSampqMbmNLa9uQcTrRsYW2Z62ngHAzxlhVdg9Ox+8MVi6Hwn776NZnZWU5WxoNSJp/X8kxoRmaUm01JG0CAxR/JjtYnrwPtQfEvHZn6iczAZn8QORQGZeZKp+x7aI/U81IxfKY6DeO4FCYIU7U/mTX6dOhtmKwY8cOs/qeDBd3zyGQCggQtO+1feHecWQ8bQKDg0Pk4b/j2NcpVzXPUgyFVaCUA36AGWKJN5OD9qa2VuUEebPmAOPsqkuOQE5OjtMnySFydzMQAeSe1TKXHAIDhUDaBAY73It3BqrPU6YenqVYz9thXUprBDJ9lWvngQPqdi/iS2kZZQ89p2PhJLkUH4HyIG/gjl9VWlxl0il7CAT0TMpk+jYxVgMz9eSlVGxX2gQGaaGJHJPWCHDOv0sOgVRGoCsc1tYhdqJLKvdHIt6G2laZRDjEu85zQKNHj87oQwJi201QQLCY6Q/mZvJWVa9PCfw5yj0T00svvZRyzUqbwICIcShE/yknIY6hY0LAbZc6Jvhc4UFGwM24DzLgg0hu+PDhYt/9UEpMPGV6YDCU+jNT24p/m0pp8Ndd166VbN+sefCg8js7tf2JJ6TKMf7x4wgvHujgtei2S4oo0Gee8U/Ly8m7FjgiLcgbfXnZF38trRJbbEaM8GpN/rlrl8TMe5DTjDgmK0g7wQd88/OT8xZ798ABqaBAIRUqv7FRIe3zT5+zfoPwCk2S7XY09m3ycrIgDwXV1Ki7aYXGFg9TLjMCw/JikYj/mzZC03bPKGX274/Iuq2SYTwGwRWZq9lnaIaffU7Ky47fptirnNJUXS3xJkvbrR+UYzzblgNP5CBAO7Oam6XOAOMEeWNsFhXFItD/b3RIAF4Nrmx7Kijon0Z0jp5jHbuamqWqGjvayF0QXpE79GRxcTQn/X+nP+jP6JeZtXcp1NSkEMfKPlOYuI7du4PxCj5NTRHZS1z70XfQkXv2SEHeOowtAB/b0/iwQbHnolfvlA4XqunppyUwSJSgCa+5uYlyxL9OG5EDW7k7fDiiX4PIj8drIprIA+PvOXRTlP7F5vHb9ux/9E5Q+UFvIQu2sg4+6EmwTZR2HJAYE7EYYrdiryWqI/o6vGJPtm6Nvtr/92gb1H/uvjn687f2ZEd8nNj2YIP4C7LVsz+afTk88iuov0Vf1hytW0Nr1yqreaJaGJtjxx6h8xp+G/zAYMwYqbLSrsn5+dpy8KDmM6gmT/ZfFgXHYKSMbWCAIbCh5XHFAIZWkLIITlmZlJcjjR7tvw5e6jNxor1ShueNG/3T8drIJ/hMmGDv9OC0lpSovStPDd37VIAB8otVUF6hyd/48dEt6P87BgRsx43rP29sjupqhceOU17JJq1sbNS5c0+OzRH/NwYLA+QXE68WjAdOxKRJ9rKOw2xLD7o4viUtKhtZoawTJku5PgMDymLIkNlog+21Jdkn5WijreNCX2I8ArQzDC2ce9uyBEDs6x4+PFmL4t9bt86eHjXhLCOvJSXx6010tce5yso7qLLJk9U9caJ8z2LhYNliAx/oSsZkaWkiruJf9xzfaJrtncoqXClVjEzOC4Y5ulx8CkdfBR8cENuy2CAcJttycEA7KWcbGHgTIdE0S9crxCQOshF9PbalBFzo9UTOdmx+7zd2Fttu6/gir0H0HXQpC68JaIby8yKyRXuj9QzjGSwqKjzu/X2CTVBe0T/waqsLsLPQRVcmSFkVXQrFs6MEMcn6OkF9glccVNtnUrBB6LwgNOnLZOVKGiMyGZvnWPytoD4ePgE2yHZS1Jv0i21DTY2au7vVgM6Ovef10apV3rdB+Rz8wIDBaOugoVyzsyKDyqYsHYiSRGFFKwY/0BIt29CKrpMBEqQskTqKIzsnMij91oGDxkAOMjOJAfBLJ7qN4AOutg4Ijl1pqcIqVHfeehVWlPunH5RXZvqCBAYY5KB9WVyscOUodefmqM6GNjILv7Z9Aq4oOgy/7Ww6AZctPWShu1uh4ho1tLQqjPzl+5xlxHgw60IZWwcEY0cbbcczfYBjF6CdJjDgbH/bsjh2BPi2BhZsg8r65s0Rmkww2KSeGbdwdrb2d3aoacQIlfgd2+gdW2zgbcOGyCTRyJE2nEreexaiabZ2KJSXr/CI0uS8DBuW/H4iTsAHfRBNM1He6OveLKptOepgRhNZR3ZtU4wOGT5hgpDj8KiRydvALHwQW4LTgz2wdXxxaLFfQfDBBjG+EgSW4ZxchenvWD2DjmV8ga1Noo2sjAThFR3LhKhtMAI+6LoENNkmFR62X8WM99g8BEyx1/y0l738o0ZF+tNPfi8PNgidF4Rmf/7WsK6IIx6vbvoz3nWPr0Sf/dFMVA55RdZt/S3sMjIUw2tzUZHyirKlyn7GZiJ+jsP1ABrnOHDhqhySCAyFUyOYdc3kF9ZxIkYmv/V4KA5MHthMxwca3V7yxNLqjrNMjE063+Ft3xwXPdI2uE6zRufm5mrRokVpxrU/dlesWJFyp6m5wMBf3w1aLo6uqrTdajVo3A0sIRxm9x6DgcXU1TbwCPAOg3CQPawDz8qg1MgDyL63EQ0KR/6JpGNA4791wXMSwONcuZRZCHjvj6lipSdDE0Etb+7O1FOJUnFiLW0Cg7HllvsB03SQ7NmzR5xkwxtzMz0RGGRyOwl60tXBynTZs2lfViiU8eeEe3gUFxen3OyVx5v7PDYEmHByx0MfG4au9OAjQLDPaiArmS4NDgJpExjsb2wYMk4WswAsEWZ6YmYyk1/MQlDgZukyQ4qHwkz05s2bNYw92Wmc3JHWiTsPXbTT9kTAxNWl/B1eoOmSQyAdEEi1nRNpExjgZGG4XMoMBDxHK5MNOW1s48EolxwCaYCAm5FLg04KyGIm69lEkDTzMOwQSPhGqeZYDgHYB7SJhYWFKfWsXtoEBvSCe7PlgMria1oZ++qGgtM8YsSIjF7pwijx55JDwCGQmgigZ9me6lLmIdDR0WGCAhcYpG/fsn2cwD2VDghwFj3F5Mkp8BTrkGNkhz3bW3jpUoam3bV1mjRpkjBQmZq6htCDmzgYyKxLmYMAM+ccauFS5iFA0MdzI5kcGDCJmMnt279/v9g+7u2iSAUpTZvAID9naJyo4PZFpsKwGFgemBHI1LSvod407ZVXXsnUJmrHvn0ZbZiiO85bAUrHZ5w4zGAobpmJ7j/33SGQaQgQ1DY2Ng4ZHZwK/ZcWgcHOvXs1LsPP6fWEgTOJMc6+Xy7kFXSfDoHXEAF32slrCP4AkWZmefz48WZJOx23bbLamo4BzQB1n6smBoEK25eJxZR3P1MDAVYMmE1nZdqlwUEgLQKDLVVV4sjAoZJYVmrh1esZnFgazPQTe1gidNsyMkOIh8JKHoc7pPuM+/r16zND4I5DK8aNG5fxdsWDbe3atUNqco2+zfREoIdNden4I5AWgQEweEvcxx+S154CgUGmv8WTwCCT9w0iRZn80pnXfpQMLgdD4UH5wUV04Kll+kRDUMSYbSWwBZ+9e/cGrSatyg2VE4noFLbQ0b9Dwd5kovym4qRTzqCP9nBY6u62IxsOm5fuHGIW3aYseaEXkKYVLa9FHn/ep3fdz2c4rJDhVwpT3m8dXvv85o/mxSsbfc3vd94Ga0uzh153Z+Qoz4kTJ9rVYUvPa0uQdlImSDlomrIR4o3sw7fl2za/x2sQfoOU6Wljdla28vJypW6LcU3bPJpB2kkZ23LRND2Z8PvpPRhmSzNoG3uwtW6jV86j67d90eWiv/ttbxB6Hh1o+KXjtccrE1Vu+9atKi8vU0h7+68vqpxXZb+flAnSzqDlovHpl7k4GaJ4bWxoUEd7u8yae9T1OKUibTwGvW7dlx4/QfqEsl75mMYYO6qe+7F5kpSLqabvz4HoS9t2kt/768uN+dV8+LB5sJxJtoO1tZqMPY1OtvQo+1riE8279z0cNg/n9vZ1dJs8bKKveeX6+4yVi/7ye/e9crY0ye+V9eqSlJuTI0TVyKxtnVH1DOTXwQ8M1q2Tdu+2akO4qkrhxibVVO+Rnn/ef9nOTokHPzlLPjvbfzly8iIYG1pe7Q0NUn19RAC8az4/mzdsEMN6eWODtG2bf/q7dkmHDjF14JNSVLaDB/3TiSqm6moJfAsKoq/2//3AgUiZZilUV6fDDVv90w/KK8uPbEWDtk1qbJQ4bWffPptSkbw8sFrdqc49o1Va2ui/jbzxur1dsj1FhDLwiazbHh+K/ASR9fp6bVi7VvlNxQpv2C6NKPGHE8qP8QWvuZaHCiB3lEOZ2iT6kv4P0M5Rubk6wPiyLVtTE9F1QU75QY/Y0gMPcAXfwkIbdCTG1v79yqqrUxf6dkV+pC4/tQTE1dgBDKXtS9V4Ayrjgz7tSdufe0E6MFLhcD82AtsTBFfwgS6yZ5M8G4SzbZt27IiUsN1Gi+zAr6cHGN87dyncsktqrE7efmjCs60twc6iu2ztAf0YtE/QBeAah2aYLWW1DdKuLOmFF/q2Bz7ROx6+fvuF9yIE5ZU+YFza6gLwYUK0ri4+l7t2KXTggLpbm9W1uqOvfLI6FETW0SHYve3b49NMdBUbhK21HSPUR18m4LUNfVSbI+3ZK61ZI0W/nwJfC3kPkoL6eEH9LWwINjqmnQ3btqmwvVVF4B1zL0izBqKMpXUdAJJz50qWD5GEduxQaHi1pBzp9NP9M4GAIkgLFvRVDH5qQDna0PLqRGgQ8tNO8674/jxUW6vDo0ZJpaUKTZvmn/7KldKsWVKQNz1WVfmnE90S8Fm0SCrx6Qx6ZTdtMu1TR45U8ZIONuf6px+U140bI0Zy+nSPC3+fGAHeQD11qr/80blqaxUqLFJ+TYlyyyb5b+PWrREHZP786Nr6/46yxBguXGjvNNPGILJeXa2WwiekwpEKnVjpvw6cweXLI+MyjlFP2lgCAtoYxHHhBYkB2lnX9VuFkXPbsvTH6NFSeXnSJsW9yRG3tvSoCOOMvisri1ttwos7dmjXAw+o8sQTFSrZqNCSJdKECQmz97lBABSEV2SWvrQ9WAInCZpz5hxho+Gw9EK3NGZscl5wtILwihOJQ7l48RGafr7RH6tXS6ec4if30XlOPfWIg3/03fhXsEHRuhKdsiFLOjxeGtGPLmJsotdtbQl2dvJkafjw+DwluoqjxKRdkD7BBiHrpaVH1d7c3q4JC7s0bMww6dQFfYMH8EDv2O7LR+4ItoLwio6FV9sHosEHx3fGjKPaaC5s2aLw31cp1NasrEXz+sonTnMQXvGbZs+WxoyJTzPRVcbzq6/25SFR3tjrSfytjpIStRZVKTR+XERfRNtGZB0Hn3Fim5LQTFpVUH8LnbVhw9F9UlGh9sZitc+cefQ9jxFoDmJKm2cMBhGT15wUz1PwJjyeNcjUxDMUBbZOYZqB8eqrr2rWrFkp9UbDNIMwJdjtCltufUwJru2Z4EQf9qGjf9ItcXIJKZPfp5FuffJa8rtu3TqNHDnSPFORjids2WI3FJ7Zs8UkXfKjb3kOKJV0V/pZgHTp7YB8emdxIySZfPQep0Zk+ok93psM3UkpAQeDK+YQ8InApk2bVFlZmfEnnfmEI2G2TNe5sQ3n0AAvaIy9lwm/cSpzbLdVplnDaWO6n5aWCHLez5CKJ0oNemAAECtWrOjFKdOP5extqI8v++vqNKpn+Y6gIJXehOeDfass7pQXK7hSNnNHV1fGB3iVpSNSFn/HWAQBTivhOEMmVlxKjEAmTzYlbnXm3vHO+M/cFvK4ZtgEd6cH2RaV4sBw/Oow22esBqFNgxoYbK+v15/uv18333yzeFMqf9/73vf6jeibWlpUXFCQ8bNBnV1dyk7DZfxBkNO0JMHybjpuy7ABe1dtbUa38cknn1TpsGIbSNI2L9sX0zkx3ti+51JiBDJ5sim61WwfSsVjIKN5HKjvOM7pthIUfSQ7L8dMtqpDXv7QT2t4liWDUrJ2v5bNHNTAoDg3VycvXKgbbrhB3/jGN8znP/7xj35fWrF6wwZNHz8+7YQ/tmMPHDhgjhaLvR77GwOX6TNfNTU1Gm77oFosUCn+m9mAoWKcUrwr4rK3Y8cOX+MxbuE0usiZ7qzQ9XTCvT4AACAASURBVLfXOhVXb1fz4K7PlO6Bjc9mumw+ENi5c6dOOOEEHzlTO8uB+vrIiWj9sDl9+nTR5nRJDz30kP74xz+aXRFf+cpXtJuDPjIkoW9tA3B0VyoFd0cFBuxt/9vf/mYcmn/+85+9XfXYY49pzJgxpjNp+Je+9CXNmTNHjz76aG+e22+/3eyXeuCBB0yE9853vlNvfOMbVc/T8ZJGFRfr5HnzdPbZZ+vWW2/VT3/6U5155pn6v//7v9464n1p42QHcQpopJ54eQbq2kBHpJ///Od1/fXXm4j4W9/6ll5++eWErDY1N2vm7Nm9KyNNHI+XRonAh72+pH/961/GGUnEfnV1tZGxTA4OkNd0WjEgkLF9MVBJUfrMMjM7s3z5cv3gBz8wYvmTn/xEX/3qVxOJaNpfv/vuu/We97xHP/7xj4XxTafZ9Keeekq//OUv9fjjj/vqB/QqD5u65BAAgf6C4FRG6d5779U2jiuXdNsdd+hlTjn0kbC/6ZCWLVum73//+8K/vOSSS4QvsD3J0ahsP0+Xsc0EDPblHe94h5h44m3yflYFOPSBvH7T4cOHje264IIL+kysf/3rX9fChQv10ksv6aabbtKiRYuELo1O2ISLLrpItbW1estb3qI3v/nNYtUmOh11XCkM4qyNHz++N/PBgwf1hz/8QQsWLDANpgKCgpNOOklnnXVWb31TpkwxUfr5559v3mpLxH7xxRdrxIij9+iyH5Q/Vg/e//73m2iJiOlNb3qTqQ9h8JxGHOYRY4/vcj4B0fPPP286lb1sBdu3a3F2tsrKyoyjDq+cosMfM/rJUmNLi7rr682yV35+vpYsWaIPf/jD4iHUa6+9NmFRlFkeR2gNQoIWQmx52GhczhB8BjZ9idyceuqpJvBj8J977rlxy3gXJ02aJOQLnFM9Pffcc1q5cqWuuuoq/epXvzJKbd68eQnZZiwdj+SdYIAhQGGyunRUhB+AMPKPsmbZln5Dcfznf/5n0poONbfI8k0WSevr72Z9c7OGd3dbt3f7zp16ftkyPVhVZWZzLr30Uo0ePdq8LZR914lOyGLMzp08WTteDfAui/4aE3Wf8Yi8oIeixyUGwHYP6saNG/W7v//dHF6AfP75z3/WhAkTtHXrVs2PPuovin5bZ6dKRoyQ5Sn9UTX4/7pnzx6NHTvWFECWs3pOXyOQpu333XefHn74YdM3GL6///3vor+SJWR2qCScxmeeeUboTiZiMO7ISKKHUAn2S0tL1dQU0qhRo8TKUDqtrrDleNWqVUYvITfovZNPPlkJDvA0YsBYwk4f74dW0R1M4IHnsa4O0y769Xe/+52YiOXkvsZ9+zRl4kTT9v78juMh/4wrbPsLL7xg7B2yBLbIEDoTv8hvYqz/5je/ERPH6CRkl4AeP2/700/riCfZt8bIakLMi9v6ZjmmX7t27TL6hrayQolDjd9WV1dn9NGJJ57Yb/30FRNr+AUbNmzQhRdeaHxZMPrRj36kU3wcV2yjwxjvjGnGPDaDsthvJoOuvPJK45uDLQ4//lh0mjp1qk477TTTd5MnTzYT9dQVnY4KDLi5b98+XX755eaT37///e/NzCcOv5cIFFDWAOglOvz1r3997wDhyDCYTJYwWL/+9a/1mc98xgxilB5/GERWFRhsGPW3LKxMWA2Ce6zLhgg+Kxgf/OAHjfJc//e/m9kqIi9Ol8GJoOOJcHGaECAA9xRCeXm5ELC8Awd0+113qXzNGjMAmJWEN9rzxBNPmAGGsUaQcOheKyVN4IWje0pjowoaGowRZoDiaKLoaK/f9Mgjj5i2fuITnxBC97WvfU0f+tCHTHsRwEROl1c/DguK/ngmgo+n7r/fyLUtHQYdMsrAYyCyqoRcMqNJ8JMoeQN9oJcI6bu77rpL999/v3EOZs6cqfWrVumiOXM0sr5eYydM0LRp045yFMAAXmK3qe1paNBtn/+86ad3vetdwnFDwaEsCPyTBT+J2j5Q19lyhiFilonTG+7761/1iRkzNDbJGeTx9MGTy5fr+XXr9PlvfENMYODwo7twQlnSfu973xuXZcb8mLxpxkDEzTAAF8EafpAXeEc3tG/bpvcXF+vFF18Us0DxEk40fcpKrpd4Hus3996rhq4uMw4xIFdccYXRP+hsb+LFy+99NnAG+XEKZD0a8Pvd737XzGDhULTv3KnKadPUGgqZGd6SkhKjY2fPnq3Pfe5zxrHDEfz2t7/db2Dg0RisT/Q2Tid9xoPPGNjBSNhGVn/A6o477jBjghnBj370owl1KA4ZMkXCluHcHc/AgDFD/w7EaimzqDiT8M12GSYu0E/4GTeecUZCyOkX+od+8tqeMHOAGzhc1M/uCpxcMGZsoVuxd/gI9JFNUE8/8offw2Sq8ScOH9Zdd9xh6k8U+AVg33cRxuynPvUpM+uNrqQ9TGLAG98/+clPGgf6jDPOUHlhoXbt2aNdra1mMhSfB+caB5WZa3Q4+uq///u/jW1hwnTu3LlGt9780ENmOxHyzS6SwUp/+tOfTP9BExnDxnzkIx8xfYfvR1uxiZ/97GeNPNPn7Z2dyuWB6K4u0x50NH3z73//2+jZW265xUx0oseYSGR3zT333DPgE2iMA/xneCSoxHYw9ugLEnLJrh3sZ3SiXfjbpKqqKjMxH32f70cFBszaMJAACGI4fcwC8+lVhmPCHjEeIvYSziTA3HnnneYSwQVG3Y/DjmFj8CN4OF04NQgRziXOujewyQd/3AMEDB4ddd1114kO9hwwhBkef3rbbVpYUaHXjx2r+sOHDYgoDASaWW4UFxE/ER0nJWGAUT6kxbwI5+yzzUwFs9nko80cs0lUhsH62c9+Zvih7WyPwtGeOXGiKnJydKioyMx0eZ2CkwW/H/vYx8zMOkJz3nnn6emnn9Y111xjomby8odyYWaHDh/oxOwbAQr9hGPUUFurcd//vqHLwEChs2LCFguwIu/rXvc6wx8zFihAsN2zfr3q6+o0ZsoU40SSf0bPS1gwWCSW1Lyz/L3gwOA+0I2Kqg9ZIdBgppHjC+F5XGmpHn3mGV12xRXGoYcHHF7ahwx4vFEN5T2jEu7uVkdbm85+3euM0r/tttv6ONtf/vKXjYwnCqI8uUVGBzLxfA7yTx/iVBKQv+/66/W3P/xB7cuX65V16/SGN7zByCZKgtkLDA0BPtdRJuBC2xlPN//tb6rr6tJvf/vbXjaZhXz22WeNIUYmGAPg5I0bDyvqoO6OjoHf5sdMIfx6wSqGdv6oUZo5Y4bOPucco/TQOcgr42vixIlm+RZHn/HJKh2f6JR/LVum3338470vCvJmzj/96U8bWWdc0zbGP58EfmDE95wB7j8PZOSDGUL0CbqL8cO2Q/RT1Z/+ZLbjoVNYAWBs0hb6C32HoUVvse3gf/7nf0wZgsX9GzdqxOTJ+mVPYAct3qVBYhsVq7Nf+MIXemcAGc+e3vT4ot0DncDxr3/9q9Fp73vf+4x+W33XXcqaPFll48ebdsEHy9yxCV1JGbZERU9EoYe8VWVvxgt5JDGGB7Id7R0dWvvyywY/eGDM4/AgR+j/pUuXmiV8Vsg9HvjsbG1VDjLU0yjwxtlFvhg3yDQJm4U8UDf6wuMdJz47N9foHRwBJq6Qa5xQZtHRBcjsX/7yFxMYgHPs6iFOS+xkQA87A/6BzacPcRwJwNEdbG1AhvnNxBGzp1xHpsP79mnv5s2ac8YZpt0Gs85OY2fABPsPZkywkWgfvgXO6oG5c1VBP8dphad7mU2lzEAm7DJ6A/2Ij8K2EWjQB+DMXn8mjWgfthPfIGf9eh3euFGXv+1tRj6QmW9+85umX+lvdBeTAwTE+F4kY0/37dOcqVONH8V95AIfAR5ixy1lBkruwW/5s8/q//2//2dkDHsKn/hBbP3mE9nk8BhkmIB/5UsvqaSgQDlFRWZ3Cf1HHsYoDih9ga/j6V74JUDl79JTTzXXCbDBEF8T//Pd7363wSL6H22nbjAvaGtTuL1d2YzPtWvFJBl8Ikfgj6MMjgQc2DB4ZTxQ/uUVK/Sv1atN/xDgeAl7QR+gb/DDGHf4C9BlfLY3Nmr+kiV68qmnjGxSjjbQh6x0egmdwB91UH9JKKTPXnKJijs6TD/CJ22AH/rVG/Ne+WSfrEqgg8CItmAn4A+5Qgd5fjI2IjqBB32Bj81YBSNP3qLzefqq9xoFceZpzHe+8x2zZYiVApS6p4Q5qYMB7i2x0DgGCQbNm/nFyUAAqMdvQtl5M1ooQIIFnAMvoUzZzsT+KOplEAEqURFOGw1lvxqDEYFEAe9Yv15P79ghjgJF6Jjdeetb32ryoVAxzAg50VW8hAH2kmdg+U0HsMQFf/DCfjIG+mgcyx071HHyyUdFapS78cYbTZDFIMfAI0wEHCg6Bg5/JDobhUhikNJO754XbBCRg3lrR4fycHJN7sT/wIY9u/QbNNkqUvDkk8q79FKz9IQTT4RPBExbwA8e6AfosyoCTWZLxuI0lZUplJent7/97b1BQTR1DMAPf/hDUwf9isxsf+QRvSlmOxXyAx0GyrEm5BAHGCcJWUTJ3HP77frQNdeovqjIYM+gItBFRlAU9AFGC/mhPxn8xkDV1yvc0WH6CQMABtGJ2Q7qwTCQPzodZptWj9HHgYlOzGJRl9eP9DXfUeoHamu1d9cuzZ8712CCkuI+TiH9xfIrvwm6MK7IzQc+8AGV5ubqHbwJduFC1dTWGgVFWdqEkkX2wZlg3hvH0ESxXDppkt4SZ689DjfGjrFIUH711Vcbowc+jIvGzZs1g0MBSkpMgHvZZZdEN/OYvqOHeGaJwAdlD5a0f0Z9vU56/HGVjR5txi644PCi4LyAH6eE2SgCBBQ2/X3jhz6UkB90Cs//0CfIN3VhkJgp2rJliy45/Q3KWbHVlEf50texshBbOX3Zxhal2BtRv5kUYIaQviToQg95ExO8Pf26d7/b8MKECe2HL/qMMqxwIrM4iQTCjE3G2Ki9e3XmNdeoIGZpGLKsikAHY25W0J56ysgS+v66N7zBcEbb0LOsjtEHGCtkB6PKeOEeCf3Hfa5Nb283zi+6Ff1CfgwPcoauQE+ie5ipIojx6liKrut58zF4ec6cIRD1D0cT3YDu5Jm15v37VbNpk36/bJm++MUvGnsAHRI4YZ8Y92DJGEmUwNMbo4wpjCm6PHos0yfIxO0//rGqtm4Vz4whcwRz6BkmqagHLNB1TLwQpDDGwbrl8GEVt7Vpzvr1pt3UR1kwQG8iR5THsHOPupmIg6/mtWt179e/rhkzZxonEOcaQ882XhL6jZlM7CwONPxA++ypU5XV0tK7TRRckdvjnZis+NXdd5vZfGZgcZDpV7BB92O/sDH4BsgIerHz0CE98+yzumTNGtNmxit4cA9bhEPGZJqX6Bt0ETqNMTv+5Zc1afZs099sraJeL0j0ysR+dnV3K8TWs+5uI7/oDZuE7cTZ/I//+A+zJYOy9DcTfUxiMCZwJtkORBDDpGXbnj3KGjZM/16+3PhXyBrtoF9oL84a24xpQ2y67LLL9IXCQrMqxPinP/nDaWfco4+RJ8YXTh6BGLI3DJsaVRnyhd/BWMKOYA/IS1n4oI9IO/fv1+8fekgteXmG916dJF4YXaC3ve1tpn+QXWwCfUa/NtbUqGndOo2/4ILelU/0Bn1IYkwmSmfPnGl4oj20g6CXPyaGohO6jglcdAr803O7qqs1/aSTTDnwQ+YYx+guZI4AiqAB2WFSDLvNhGdDVZW+fvvtR62Ie4ELKxteYkstfQlu2VVVOjxihL7z3e8aHOADnpnAiJfwT9FPZVlZ+n8//KGmvvCC6TNWlZAV/KSqqlLTB9QPZuDJJ32LLo1N6GfqZXKSVTT6CLtH4EXi2V/8VRNcSsaXoP+xibQP2fOeR4BObOrr6Yi3bzeYDmT7ABUR8eBgwKA3gHCmmVH0EqCzVIJD7iWWraOjMO+6308EEMXHIIw2GAivF6V6DhdKFMXO4MRgMTgYmEXZ2ep85RWFWK7qWSEgH8s7bHOiPM4PEZZtQtgA3QO+tzyv6M7OVnaCt/rihGKgoc1WLJwSvuPcfe7SS1XQszWLQUTnMiOI4GH04ZvvGDscAhQPyrhh82aVEmkXFxuHiMApXsKJ9bZC9UanvHJ9yRKT3TM4KHX6HoNIPhQ0jgQGC2XAYAu9+KJGnnWWGsPhhMaXepAbTp7CWH/84x/XeTNn6pyrrurDHoOKdhIB45CBLe1HYUKPWTEGz+W8HbBnpuLOO+80PKIcPbmEXx56BhsUnpfeAh447tOnG6xpGwoGWQBLggmwYQBynaCIPnrHZZdp/pw5Ouvyy+MGLYsXLza02NKDvGKQULrI58a9e/tE4jgNDFyCMhQXGKLccHR+8YtfGAcefg7u2aODjY0q+tKXjEOMM4DSpgyOFv3PbBR94SVjCNkK0pNQiigNxg35GdMobwwA7YNHxicGB6ewbNUqr+hRn2wLY7YFR/TnP/+5aSP0UFzn9DgoXiGcePCkz3DWkRuMCH2HU+/NlFaOGqXnHn5YI2prNX32bNM2zyh5dSEPyHy0LGM0tHy5wTy3uLh3po420qe0D5mBLg4Cskci+ClrbZV6HujzaHifjEOel4JvFC3to70oVnQKCUVK+1hZpF7yIKsoaPLAP3qSrZPIEv017tAhLcjPV0lenul7ApzecddzmAK0ow2vx5P3iW6LnjUjgOZhMeqBX9rOX6/RfeIJKWp7p1cPn/DNigTPyFCPN76Z7aO9JOpFbphowcjiSNB2ghDowCvjBUcGGSToym1p0eg77jD80MeMI/rBc/IYG/xmcok+ipegi9MTL3l8szqEYzypokLnLFpk7AuTV+hQLyHrBB/IG7LIahmOKQksn3vwQXXecovZBsp4ZEso7YBXxh/6nOus7mJkwZ52H9q/Xz/65Cc14/LLTTsZx7SFMeQlHEOcB+pDLzPZdP7Spdrx9NPGAWAsoRMJLtBZTLjgNOL4YuuYWcZhwTnAJpzQ2an/+epXTeCNrkB3ezrao0kATCLIQD6xEU+NHKm169fr2+PGGR2CnCTClrLIL39mfHkVB/hk5ZJxxDYfnDB484IsxgMJ2SKABFMw79y7VxsffVTNs2YZPYNzhdzBLzYDP8SrI5ol+vzyU07R7U89pbrWVmPvwQg5A/fYVVwCLzAmcC3HPuflaceKFUa+4Rm5pv/xC5BpHEHoo4O81Hj4sMJNTSb4Y9UtWgfTFu838oqzRZ20E93U+sgjyp43T00FBWY8Ie/kAxd0MvzST4kSwbEnawRE6FXsP3YOXYS+u/nmewz/jG3qnVVUpDHLlxu9BA/0Mfjzx3gmH1tk4ZE/b/tSU02NFp96qr56883GkY7Hkze55I1nbKGwQWxBXriwj/2NVz7eNU/+6A/+kHUmQXp1m2TsDmOSAAxf6uCGDWZLYtPUqUYfYKsY7+hiVkdpK98pg91jWyLbv3iOYDLbRBM487H8EbDzB94dbB068USFiopMAELeo/zAmAqYWMzav1/nV1Zq5+TJxl9gyxH9SF/BG7oLv4Pf9BcyRd/iz35i/HjN7akT3wF/jB0R9Dvl0D34QtgGErJB3V5idRMaTJiy+kqi76N3/Xh5+ewjiRgKBjcKio7nYVKY4GEYOoL7DDxmxxFklDQRD0DTkQwGHHMGF52JQaB8H6XEXsc2f4+4zWRJfPt28Ul0P2vaNI0YdrJKcbo7OjTCO3e7s9MEAUXDhqmC6L+rSxMrKzmaQGLmjL8oozNq+HC9/txzex1KA0gsT8zWx16LRi7Rd2bBfJQdnp+vc047zdRSVlSk3OxsVe/fr3E4sN3dZgn6z3/8o+76/e/1l7/+Vb/4yU901dVXGwVYu3u3rrz0Us2bO1c7d+3S0lmztGvbNhUMG6Yv3HWX7pw9WyfOm6dzli7VnFmzlJ+Xp6bmZj39xBN699VXKxQ9e8Qya5x2FoRCKuiZ8TaYxs5k9ESZYElfJEpL5s8Xf6T/+tjH9OB992nLjh3q7uhQNn5AV5ceW7ZMI0tL1dnUpAuWLhUK+Oxzz9WuHTvU1dmpyooKPfbQQ7o7L0/t996rmr17NXPaND33wgt65MEHNXPOHE2cNEmtzc3GkV/IYI9uEzLH9oi2NoE7f5Uosp40b8YM43zjTCAXUydP1kc/8AG9k2dqcAwpz19Mmj5xov7S86AYCmnLtm1avnq1nnrsMeWyvEl+ynV36e677tKk8eP1yksvmTHDwH/zlVfq7j/8QacsWGCMH0bxpcce0xsXL9bm7GwTNHgkmQ3EGKIsjQGJbh+Z6FPkjhntnpUXMz9DP3oP/3d1RcaSpE/fcIMZn6b+JPJKcD13+nTz9953vrMne5d+9ZvfaMPGjTph5EjVdnerjb3tv/qVeQ9HZ3u7rn/Pe7S3ulpf+tznjJODs077Jk+apJdWrVJ2a6vmbtyoRx5/XEvPPltXvf3txgl49rnnVHvggFatWKF3EUDGtpNnc3AyeFjXAycrS4U9Dmd+SYlG9sitV9b8xmjRF7H1SaaeST3P1Pzs1ltNrdU7d+qRZcvU3dlpZhcZnytfelH5WVlqa2zU86tX69knnlB5WZnq6utVVFCgmv379euf/9w4pK0tLSrKyVHDr39tFDj7UssqKvSJT37SlEEv/uO++/TVL385Lk+ijXF4RaaMXHG/o+PIKqGXl75kPHq/PYyiPoehC3NzI3pU0gff8x799Re/iExKdHWpvrZWpcOG6c6f/cyUMntnm5rMKhS64+JzzjHBBQE9ej/74Ye1btIkEwASEGIDMFg4Sjhi2AscbQxZH7565LXPtSg+o7/SZsbJr376U7XX1Mg8cTZrlnLCYa188UVNO+EEhcwMaUg5oZCuf8c7jKODAW1tbDR98tILL+iC+fP18ObN2rx2rXEsbv7KV8xKAQEfhh/nqWL2bP34hz/U7T/4gXkmafLEiTr9hBM0CXsDz11dEexiMJ4/c6bEn6TZU6aYMTMRuUIfnXSSPnDddcb59CYyoM1fdJryjneYnzhttcuWadScOQplZWmGp39jaHplx5SV6bOf/KRpy6VvepNOmzhRn/30p82q/zoe8Cyaol09vNO/yB2TAgTeyDpBG9tj/vHHP6r5wQdVPnasskIhM9v79f/5Hx2sq1NtXZ14oeFXv/QlXfrGN6q1rU3FhYXqDof14Isv6oUVK/Sx//qvCEs98unx5233Ycwa2+zdaG/XOA5wWLrUu9L7WXnZZZFAMkGbz1qwQKe+7W3Kr6gwvglB3itr1+pf//iHslgV6OxUVlj6zi23aMXzz6t3Q1FTk6ZOm6bGtjbt279fLy9frhdXrtT0qVM1Z/ZsNTY16cJzzzXj4b94bm7KFOPDzJ81SyueflrXf/SjGs8JWAn48hrQq3+RG3TwiBEaFT0729ZmtkFNmzDBK3J0nYzljg4VMtvds/vi1u98x7T37/ffr/amJoW6i40jx4TL7d//vnZWVxu/a82992rD1q36yPveZ2aVmcxlbPJspOfY41QSpPCbVQxs4LQ9e9Q8ebKKoNdPG48w3mODEujYPvni/UA2Y2idNHeufnzrrbr8ssuUw9uPu7u1Y/t2nTRvnkb1nEBWybjA3vXY88qeHR6XRU2Ojj3nnF6K5555pq7xHOZnn+0dz70ZfHzh+YL+dGxsNWY/QXu7KocPV+XciIs/b9YsPfnEE7qe7VJd3Vrx4ot640UXadb06WYSgGANXcEKozZu7K0SJ58JCAJstgoTlLDLg8lwyjCZyH0mWPHR6XNWpwlmCbIJ5ggcmCghOCV4ig1KQ2HCk8FK7D2fODEySHzS/PyPf6yy7GydOentqh02QlPGbNLcnr3s/VaBkHI+LrOrtttUtmyR4izh9EuTJe2DByXLM5S//NOfKtTUpHe89a36wv9eqA+/9U+6+9FHdduNN6qDh11yctTc2mo++d7S1qbC/HzjROfV1KijvFwlZWUm73OrVol3Pzy+Zo0mT5igQ62tJoi6+uyzdUrUTLppC2+hDvLgL/ig0BLMTibCac2qVXp20yY9u6FKS2Z/XdX7btfOPev08y98QYUFBdp74IDWb9min9x9t77wvvcZ43TijBnG6dr15JPKnTtXI9j+M26cdtPujg5tqqrSui1btGDWLJ26YIGKY2clmTEkMLA4zpAjcvMJClDMPsuxXe3exx/XqIoKjT98WPdsb9XMSf+p+574gE6ZM003vuc9ZuCyZx0DC+8lxTGnbdXWRpz8nlNbEuF41HX43Ls3Iusx25qOyht7AaXT49DE3kr0+84HHtDKNWt09pRztS/3It1+z5X62JVv0qVnnqnSkhINHzbM9CUOM1gS7JFOmDBBazduVN3WrTrrggu0eedOM4nws3vu0c6DBzUsJ0djyst17WWXaZrnDEUzUVUVaWOS2bXo7L3f2c7F6ljPM0S91xN82V9fr78uW6Z/PvOMvnjxTfr9mp365/Kbdf8tt2jaxInGGaL/vKAbmdtcVWWcCa6Vl5Zq9dNPK7e0VHMXLNC+Awe0tbpav7zvPo0qLzfL9Tdcc41el+hUq+XLJR8nWRzFPkfeoe+8SZOjMsS/cP2nP61T5s7V7tYvqDjvz8rJ2qTPXH99b2aMBw5gXtQES+9N3jUQq1d6byb5wsvI0CGxYyBJEXOLY5wPHWIZR8+8/LJWrF+vvXUNmjnp83px3W3KztqpH3gOqmR0IttH9rOKsH+/smfPNv2WiAyyeqipyehadJIZo+h06EY7cYkqiL6ODWIVOcjDyaxwYUfQXRbprvvu01Vz5+r55mY9sXq1po0bp9b26Vq37SyNLr9FG3fu1NmzZhk9+cjy5eL5icK8PLOqXtbVpYqxY01fv7x9u06cNElnn3yyGc9gsn7bNi1bs0Y4NVNHjdLbL7xQj770klmpvemDH1R5kq1bcZuAXsBGi1q6fgAAIABJREFUW+ofUxc2CFmPWp1HB3/rd79TRWmp5k37/3Tv4w9oc/Wd+sNXv6oXX3nFXK/o6tJsnrspLVVzS4uGFRWpavduMwHFiv3OPXvMRNq4MWP0f489ppmTJml4cbH2792r8eGwpkadxBi3TfEuomPh1VbWwYdJDYLqmPShb35TJ82Zo/qGs7Vw5jT94I/X6f7vfc/Ircm6bp3aZ8yIP2Zj6urzkyPHOdDAm2DpczPJDyan0LG2Y4Qq0VtxdDNtnDhmjOrq36tPvrNOX/zf2/SL//5v4xcYTjjCnj+f/hYTpL3+QVAfj+NjwSeeLkwCj9FZ2Oge/3XD9u36yLe/rXu+9S3deNt4Ve99r/73pps0MZ7txx6wBdu2T5Lxk+RenxWDJPkG7hadbyE44xYv1mSMXHuFRsxdoLlnHtnz3y9TRKA4ScxY23YigzHq+YJ+aXkZUHK8aMSy7Ds/9Skzy/WOWbMUHlGqwgUL9FFmUWbO7J0ZjV6E906PHw7d1atVgLCx8iDp7CVLdGZ3t66uq1N9Q4PZpnPdtddqXLyThlAClryapoIPx3hZCmp5R4fqNm3SIR60njJFCldq2oRiFfasnnC+ypgLL9Rp732vMVYerBxuOJag6+qrvUvy5lmmSLqwZ6tY783oLygdjKtFoGc2oezZI7EFBT59JJ6meevixfrdb3+rccwQjepWeMJEqXS4xi9ZotyeZX+qYgY07v5zznP2sPVBszcLQQzOMtsqbINgcLWUgfG1tXqUd3KUlalw7ExtqtqhC66/XhOjlPuRs3Kk6CeNFixerO7ly5W1YIFm9xyl9pU3vEG33nabrrj8crPMzQx93MTMEuM5yX7VuOVQyODjs53D2b61YYNaoVNerkknj9a+h+s1ha0jPLjN1pweQl5oNz2m7pNwAhhzZWUycs2+8GuvNbOEvOW8gLoTBXEbNvjmtU97cSTY4uWtEvW5mfhHM9sfTjxRe3aO1sxF52rKCaf3oZ/UUGAoY9qemFLUHZxtHDSfgXdvScrhgMyapSy2kO7bp9KKSoUrJ2pM1nydddYlffhBJ5qZaipYtkyK2vLaW2fUF3Sq0atR17RjR2TCxzYAwllC9wTBB/sFvUQyEs1f1Pe3jhyprJ07derrXqfP/eY3OjkrSxe//h1ad7hSWWMnqPvQIb2d2cNQSBe3t5sZY2YSkcncF18045L98C1MjuTmHnHCJJ3W3a2rWlrMto2HWCXYs0er16zRjZdfrjICWduXVtKPBE9B8CFQQ9ajnqcpbW/Xnl//WqeceabC+ZPVyQoiq1cXX6xxPBhOXxBwEUyMHWv2qAPd5Cj6E6O+v/P003u3Ms1G7njzbtT9KNiTf0XHwivbIW0Sk1pMasSxXTNPP11Pr16t0059v8JTJukt11/fx8YwRvKCTC5Aj3EZJxhJyjp2C3/CdoxQKX0ZB9eF559vdrHMPXGMRp+/SJc0NygrarXfBJUE3nHKxuPV09XmXlAfDxnq8bfi0Uh4DVkn9fDKSn5HXp66581Tzug8vestH9HEN74xfnECg0FMSfX9ceEDg2/hpH/0hhuk7dv17IP1CmfnRDS8X8bYJgM9HAILmqZ6lLFtGQpCy7KNFGM7zJiRI5VfWGiWjk+zObLLoxfFL47L6LFjzd9Nn/1sYsSCttMrF0UzMZEjd8aPGqWaXbsUyso2OF3+5jepo2PfUVgXxqvXo3mkut5vfR/97b0c+QI+ScrG5D7yk760lB3Ogm/t7NTqTZtUMGaRQjnZmjptukx/xmvTEWrHxisrBp6sw7NN8uTHogzPBjz24ot60+uuMnR/9rP/1YyYZw4SVseD8mDh/eFk5+bqP97//v73OXu8+sEymgEwsZAB+GEfsimTlaVRo0frdxzbbBOQxJEf6iUlfgyvh2mMj20bKUobLWWWYkuYhGAbZnaW5i9aZPyCHk76/7DAtU9lx9KXPWXLKyv1/Isv6sMf/ph27szWtde/R/EWmnrpBuWVvvD47a3MxxcW5IOUo2qvHDxbJCO3nMySn68bPvEJs53osjcXmr4dVlpqtrR5clwQJWNGMvnNKnBuruLpYDgpzc/XD3/0I7NNgf3P11x7rU7B0aZsVH2+WCa/105fBaIyeeWiaLK2wpahwxzJWpyjcRMmaMmSd5lDMnrXXeKMy6ha+3ztg7ylDulTEbwGGJfJ/Am2C9/POz4urzQYfjD2gIWgsg6vHrZ9GtHPj4HoyxgS511wgWlj5djIDP1V3jYgLx+YBuGV8seCD22NkjuPnaSfMbyyVXvWnDnKZnvziFK9K84JTEnrO443LT2I48iJq1rf/vCH48/qZxg2PJzYsu+QaRUP8ZWV9f8CkXSBgGdreMjtjn/+U5ctfZtZcOBc5IkT/b8XIh3ayoNf5SNGqHxYiejJZC/u89se7+Ezv/mPdz4eqEM+tY6J/9G68PVHHvg+3rQHu/7rr7jC7DNdF3lx+WCTD0yPZxl4kNKl+AhwEAEPHXonj6B7+3tQMn5Nfa+y95mTgdifTv1mJr1vltfkF3ulzzorcrQkDPBc0xveYDlL/5pwbk+UB+t5QJq95JmaeKaOk8eefz4yoZJJ7cTecfId+/xTLfUJiFONuaHGz/Tx4/s+qJ2hAHAyCkeGZWrioXtOJfKOt8V54VomJZyBf9xxh6aOi7zBNpPa5rXFO4Pc+53Jn5WlpSpPQwcDo8rJXjioLh2NALqHE1i8A0DOOeccc7jI0Tntr+CEm6DAvuhxK4EccAqaedBdMicceQ97Hzeir1HF9Ckn9mV64uTITExMInKaUCr6Bi4wyESJS/E2oag5SixTE+0LZ2X1Hl+Xqe0cH/XG3Uxto2tX6iOAI8hMuEtHI8DKHsecDqXEKp93Fv1Qardrq0NgoBBwgcFAIenqcQj0IICT8vP//E+Hh0PAITAICHDUIg6wSw4BEGBihneGuOQQcAgEQ8AFBsFwc6UcAgkR4Hzgk9y+54T4uBsOAYeAQ8Ah4BBwCKQmAi4wSM1+cVw5BBwCDgGHgEPAIeAQcAg4BAYVARcYDCrcjphDwCHgEHAIOAQcAg4Bh4BDIDURcIFBavaL48oh4BBwCDgEHAIOAYeAQ8AhMKgIuMBgUOF2xBwCDgGHgEPAIeAQcAg4BBwCqYmACwxSs18cVw4Bh4BDwCHgEHAIOAQcAg6BQUXABQaDCrcj5hBwCDgEHAIOAYeAQ8Ah4BBITQRyBp2tTZuk2lo7suSvDSlE2WGH/Zft6JB275bCYSnHsql79kgrV/qn5eU8eFDiL0jZnTsl3uB5cJa0cptXY/+fO3ZIbW1SkFdrNzQE4xV8wNT2jb779kmFhVLubqm6QuGXD0rDu/pvIzmC8lpTE8H10CF/dLxc0Gtvj9D1rvn9PHBAWvOKtKNUWlUr5Yb9laQcfdnZ6S+/l4sye/dGZD0727vq75NyQeS1rk6hmlbpQJXCK+skv9MMjMfq6ghvuZavuvfK2Y5n+hI5CNJO9E/XFmllsz88vVyMEcoGeaMwshqEV29cFhV5XPj7rKuL5KvJl9bXSc2t/sqRizYG4ZX+WL+eg+f90yJnU1NkTLZG8dgtaUe59MphqbY9cX3onyC8go+t/oALxjEyayuvlN21K8Jrlt+B1dPs+npp//6+7dxaINWUSyt3J8aGO9hL9EdeXvJ8sXexXYcP29sDMA2qfzxesSfx0tZSqbBbKovR+2BD+5A/m4TcBeXVG5e2sg4+zc0RbBPxSjuzwtLKxr45YmWg793Ev+AVP4RPm4QNssXUq5++TDYud1ZKq/ZLOTF21PO3bOUVurQvGU2Pt9hP/C38AluajY2JadaM639sxvJxHH9bessDwElpqVReblcRDn5Bh8IlJVK5hcKiHA4B9GwVM8rGlk9a1d0dEZogZVE6ZWUK5+Xa0cYwQy9IYIBjFoRXnJ0RIyRbB6SlJVKmqEKh4mFSmaRSrLqPFJRXFCuKzradOLAoO9tyNIWAqWyEVFwklYf9BwYoHDCypYmThGGuqJBsHYmgst7VpXBhSKFhJQpVhKRQjNJO1KXgioNWVmavXL1ytgEFvGBkbXGVFCpoVGj4cKm8IFGL4l+HHvqOsrYJfRWAVzMeGZe2Dgi6koQsGB1tEVgg60F49WhBzyaBDXo2mmaXjByqDNySBNVBecXBR26jafrhGVwJKmzLUTeOC+VsxzN8xuqQuryI3u2PD2giP7YTPgQj9KNtEEzbPPvlB8/oPJ4NSkAzVFKkcBFyEjP5gK7EVvaHRTQtvqNzgvKKnQRXW12A3SJQS8ZrSZFCzAWVx7hzQWUdPOlL9LNNwlZig5Lxmqi+fmxQuKhIYfiJ6cpj8rf6oZmIVSMDQcYIfck4iYdPQUB/MyGTx3YjRpKOrTJfpSsrpUmTfGXtzYSiK66XxoyRJvde7f8LgkpH8FZM2+iOqHCyDbEedjBaGIMgZVHKEycqVFwoTS7uv31eDgzPhAn2TjrlUVhBeAUfaBKs2SQcX5ROSaXC5VJoYlkkOPBTR1BekQMMkG07MQQYEdtytGXNmgg+FZImlUt+49mursiMqC1Nb1YJWbcNgrduDdZGMK0KKxwqj7TR78SmFxjAq60DQmCA/rAdz+THaNniKilcvE/hUaOkyZbqkj4ZPTq+IehP3jFaAXjV9u3SuHH2Rh2jRcJxGTfcTs8y6xaE182bI7yOHNkfGn3vo++Q8WiaXTL6ROMZb32z9/m1cWPfcn1uJvkBPrE0k2TvvYW+Y1Yzmtfem/18YRaVcraBAXzG6q0mSajqyf3oa1YpGJe2Ez7MhmIPbB1f5BxnOwg+2KDx4yP2JA6U4VEEi7Q55iY6Fr3DOLFJyB2z8EF4RcdCj4kbmwQ+TG4mozlKChMYxLZz3brk5RLxsW1bxNfC37JJ6DtWVZLxmqi+fvwtTExocpzAAFknaD8ONBOxagL9IGMEmUvUl8yNTA4wgZSQyWO74deUHxsVV9oh4BBwCDgEHAIOAYeAQ8Ah4BBIaQRcYJDS3eOYcwg4BBwCDgGHgEPAIeAQcAgMDgIuMBgcnB0Vh4BDwCHgEHAIOAQcAg4Bh0BKI+ACg5TuHsecQ8Ah4BBwCDgEHAIOAYeAQ2BwEHCBweDg7Kg4BBwCDgGHgEPAIeAQcAg4BFIaARcYpHT3OOYcAg4Bh4BDwCHgEHAIOAQcAoODgAsMBgdnR8Uh4BBwCDgEHAIOAYeAQ8AhkNIIuMAgpbvHMecQcAg4BBwCDgGHgEPAIeAQGBwEXGAwODg7Kg4Bh4BDwCHgEHAIOAQcAg6BlEbABQYp3T2OOYeAQ8Ah4BBwCDgEHAIOAYfA4CDgAoPBwdlRcQg4BBwCDgGHgEPAIeAQcAikNAIuMEjp7nHMOQQcAg4Bh4BDwCHgEHAIOAQGB4GcwSETRWX5cmnDhqgLPr42NCi0q0ih1g6p5aCPAj1ZurqkAwcif1mWMdDu3VJLi39aXs7Dh6VDh6TGRu+K/889e6TaWqlmifTQav/l9u2TKJsToDv375ceesg/LS/nzp1SQ4OUl+dd8fdZXy/l50vZw6R14xRetlcq6fBXNiivBw9KoZC0das/Ol6upiaps1PavNm74v8TfJqeUPiVkQo9Qt90+ysLph0dkf70VyKSCz6RHeSdttqk6uoITZsy5EXOt3UpVFOk8EO7payw/xr27o3wm53tvww5a2oi5WzHM32J7AUY06FdLQodDEmhOjte6+qkoiKpoMCuHLnpy2MZl7Y0e/RVeFunwk/tkaqa/POMrgzCa1VVRIbAyCa1tkrNzRJy66XukEJrxymcUytVtnpXj/7csSMYr8g6soMOsknd3ZEy6CDbhE6nX2zHMzaIcnx6qWqYtH2s9NAm70r8T/oSXnNz499PdBW9Q3/a2gP6kbLoL9vUnw1aValwQafUGTNu0bHYyuJiO4rIHf2PfrZNyB0yZDsukbm2NmnbtsQUV42SUPnZMbLJ+AgyLimHrrQdl/QhOs92jNCyXbuS6+ZXJ0uPVEvZMXbU87foU9sU1MfD36Ks7RhB1tHr9Gds2j5Temhj7NXX7HcAT/IYeT3lFGnSJLtKtm9X+EC9wvMWSWdbFKUD1qyRFiywV1hPPimdbUOshy8EnIF12mkWjPZkfe45aeFC6c5C6eKL/ZdfuVKaNct+IEOBgWxDy+MKfBYtkkpKvCv+PjdtkkpLpZJKabcUOn+OVOavaGBeN26UcCSnT/dJqCcbgx9jMHWqXTlyP/CAtOQchZqk8IVzJb/xE8ELTuz8+XY0UTrr10fkxzZAfOwx6bzz7OiR2zhmexUeOVehi+dKfmPvcFhigoBxaWsoKccYsXVAcLII8AKM6fC25QqfsEi62FJd0h+jR0vl5fbYYnyCjMsnnojgWuZ3UPWwhuMiKbRqkkJnTZVmWbCM7AXh9dFHI305cqQFsR6dRYA4Z86Rcl1SeK8UWiopmXl5+GHpoouOlPP7DXww6osX+y0RydfeLq1eLWH3bNOzz0qnnhrRXTZlsUE46WeccaTUOknMi1w85ci1eN+eeSai122dQuzs5MnS8OHxak18DTl/5RXp/PMT50l0BxuEDsGexEutUmiYpNiq0bHonXHj4pVKfA1bSV8G0ZXoWHitqEhcf7w74IPTO2NGvLuRa+0EBfRtTJYHHww2Lh9/XJo9WxozJqbCfn6iB1591X6MUG1//hbye+EsKTZeRdYJEBkntqk/monqC+pvobOYFD/nnKNrfoz+O+Ho696VIJOTXtkAn35NeYCqXRGHgEPAIeAQcAg4BBwCDgGHgEMgXRBwgUG69JTj0yHgEHAIOAQcAg4Bh4BDwCFwHBFwgcFxBNdV7RBwCDgEHAIOAYeAQ8Ah4BBIFwRcYJAuPeX4dAg4BBwCDgGHgEPAIeAQcAgcRwRcYHAcwXVVOwQcAg4Bh4BDwCHgEHAIOATSBQEXGKRLTzk+HQIOAYeAQ8Ah4BBwCDgEHALHEQEXGBxHcF3VDgGHgEPAIeAQcAg4BBwCDoF0QcAFBunSU45Ph4BDwCHgEHAIOAQcAg4Bh8BxRMAFBscRXFe1Q8Ah4BBwCDgEHAIOAYeAQyBdEHCBQbr0lOPTIeAQcAg4BBwCDgGHgEPAIXAcEXCBwXEE11XtEHAIOAQcAg4Bh4BDwCHgEEgXBHIGndFwWOrutiPb3a3y8rC6y7slm6LQgV4QmkHK0Cqvbd6nTUuh2dWl1y0J0E7oBaUZtFxXlz3NHj6zQ92aNEHKzQYznyAF7ROvnG07KeeV9clib7ZwWPm53Zo4XjLRt00bqcSWVy9/D769fPj5cgxtLCyQJg63lNdoXD2+/fDp4RKkjZQJ2M4RJd3KKeuUui3nUTx6tm2knV5Zv7h4+aKx9a75+aScpFkzulVcaDEmKXQsvB6DDokeI6GwzFgrzPfBe5D+8GTOtmzQcseKa0yfDCuSZs/0gY1XzradlPPKGkny+Q86Qcp5+CQpO3qUVFAQp81BeQ1azuPVkwWf0JhsXpkk/VE5UspCNcWzMUnKJWQjaDt98JqUZhJep02RGONHtdHTH0nKBqWZtFwSuUtYDh4TlJs7J07bElZ0/G8MfmCwZYtUV2fXstpazSpqkdolrbYo2tkp7doVGTVm5FiU3bNHWm1DrKfuhoZI+4KU3b3b8Pqpi/Ls2rlzp0Rb8/IsGhjFbxBea2qk9et7NK8FWcoVFSmvZI/eMFbSFouyjY3B+mTfPikUkpqaLIhJoi/b2yXo2qbaWpXtWK2LKiWttShcWyu1tkb606KYOjokZJZkK+vgE0QG6utV2V6vC8blSGssmEU5Mi7pk9xci4KSesaIcixVF32I7AVo57S8aqk7LK3G67RIe/dGdEFxsUWhnqyHDwfiVdBEDxTi3VukHp187YI6qVaRP7/FDx4Mxityt3FjpE/90iIf45j+ZGz2JPyiC0YiHz1/3o3Yz6CyDj70ie3YQi8jswHkzpR7+eXIOIltR7Lf6K39+/vQnCTpPYt82E/kh7Fla0uwQfSL8cSTMRdz79AhKWifoO/QHwlonkpQQIo142BD+6Brk5qbg/OK7oGmrS4AH+jylyC9zlNLse08cKCPDCQofvRleEXOkQWbxHikjO0YgQblkoyRyxHgeHa0vj64vxXUx6uujthnW9uVxAa9e34cObXBfoDzWlrXAaA+bpzEn03Kz48YgmnTbEpJbW2RvylTIsrOpjQOmi096vecsyBlEZwTTrA36jiSQcrB7yuvBGsn+EyeLA0bZoNqRGmUlEgjseKWae3aYLyiqHBCwcgmoSBRdhMn2pSK5N2+PRivGA8MrK38tLRElNXUqVI2yzAWCQNpS4/qPcNsW5aZEwwe45KxbZNwzihn67jQRoInW17hDccX2SkqsuE0Mjs0apRUWmpXjtw4hEF4xemZNEkaPtyOphdI2OpmqGzaFIxXnAHGVnm5Ha84vkFlFic9CK44n8iBbVn0B/rZthyI4PQwnm0dLfQWwXdQmuh1W1lnbE2YYG8PsCNB9B34UBZZx57YJHQHf6NH25SK9Af6JwiunqyXldnRxLn3dKVdSWnHjmC8MrYYl7Y2GhuEbg+CD+0MUs4LRIKUDerj0U7sQYKANGE3oZuD6oJnn01Y7fG4MfiBAQrH1mhRBgVrW47AgM7DebV1JHBYbOnRQwxiaAYp69H0jLTfHoceytFWmVM/UW9QXqFpq5Thkf4IQpOZrCDlwBPjalsWI4CTbVvuWHCFV5SrLU2wQX7oD9vZdMaGLT3aiIMWRNZxWmgnvFLeJnn0bMczzoc3vmzokZdyyKxtEEwbmSEMgm1QuYPXIDRxQklBeA0qP5QLoguYhQ9iR2hfUF7BB6Nuiw92y5PZCML+/3vlbAMDbNCxyDpttLUlyHqQvgTTY+E1CE149bD13xtHVuVtZQAa0AvCK/iwXSYIzaCyTn8EGV/YnSC4evgEaeNA+Fs2MkBeT9ZtxwgBRVB8bHk8xvyWm2aPkZor7hBwCDgEHAIOAYeAQ8Ah4BBwCKQkAi4wSMlucUw5BBwCDgGHgEPAIeAQcAg4BAYXgaO2Eh08eFAbN25UR0eHRo4cqRkzZig7Zs9yV1eXVq9erdbWVoVCIc2bN08lJSXq7OzUqlWr1NbWZsosWLBARbbLLYPbfkfNIeAQcAg4BDIQAR6fYhs5j3m45BBwCDgEMgUBfPCVK1f2+trz589XcZwH2+vq6vTSSy/pwgsv7G16OBzW9u3btXfvXnV3d2vq1KkaO5aTYI6ko1YMfvrTn6qqqkoTJkzQL37xC23evPlI7p5vTz/9tL7//e+roqJC69at02c/+1lz529/+5t+//vfa/To0Xr88cdFXS45BBwCDgGHgENgsBH43OckZ4IGG3VHzyHgEDjeCPzrX/8y/nVlZaVeeOEF3XzzzUeRPHz4sMj3vve9r889AoJbb71Vw4YNU3t7u77yla/0uc+PPoEBUcQ999yjpUuX6oQTTtDcuXP185//3BQiyiCxSoDD/853vlOzZs0yRO+8807985//1Be/+EVdc801mj59um666Sb9+te/1haOJx3ABBvecbADWG1KVkVbe2BPSf4Ggqmh0J+ujQMhKa99HUOhHz2UvbZ6v9Ptc/nyyLkBd99tfxpqurXVht9071ebtnp5h5K/QFszOWW6/PqRVRz+W265Rdddd53Z0XPDDTcYX/vll18Wfrrnq+P4sxrA6kJ0YtKeXUDs9DnvvPPM6sFvf/vb6Cx9AwOc+xEjRpgtRORieeHVV19VU1OTvvzlLxsnn6WJbdu26dRTT+2t6PTTT9f999+vhoYGsX3IS+PGjdMe7/hO7+IxfPJQ99e+Jr3+9dLttx9DRSleFOH/97+lyy+XrrsuctR3irMciD0O7Pjxj6WLLpK+/nX7d3oFIjrIhTgY6wc/iLTxW98aZOKDRI6DM265Rbr4Yul73xskooNMpqUlrG9+M9LGH/1okIkPIjl0z9NPS29+s/Tud0deVTKI5AeEFIcWcdorc1ocAkJ7XIocmHfDDdIll0h/+1vmI4KT9fDD0qWXSkyabtuWuW3mAL1PflJ64xulv/wlM9tJGz/+8Yj83ntvZrURnfXXv0oXXCB94hPJX7Gxa9cu1dTUaMmSJb0gnHjiicYvZ2L/a1/7mtnW33sz5stTTz2ladOmmccAuLV48WI9+uijfXL1ecagtrbWRBI5UccdwkRubq5OOeUU8xxBS0uLWTWIfnaAiKS6utowU8hRTj2publZRDcDlaqqpK9+NXJq2DPPSB/72EDVnFr1ICQM7n/8I3L8/hlnSDN5a2WGJY4gxlnmfSH054032h/ZneqQcGz6N74hcUwzbbzpplTn2J4/3lXGuOREUNr4X/9lX0eql+BI8C99KaJ7OFIaA5WJCWcKo3v//RHdg+2Zw1s50yhxii6nMHMa7rveFXGCr7rK/j1hadRkX6wSLP3kJ5HTL1nIJ/jL5MSkzJ/+JP3rXxG7cv75kVegZGKbecXPrbdG+nblSunqqzOvlcgvE4lMgL/6qnTllZnTRtzkX/5SevzxyEQG/VfJy1HjJJ7hZQtQtA/Otfr6ei1atEj44Dz7myiRL4+jbKMSk/3RqU9gwPKCtxThVTxq1ChTyWWXXWbK7dixwxDloQUvZWVlqaysrPc6v0kFBQWGSS/fsX7yvg3ehQOIvPclUxPwjRkTOY6cI4Vt3/+TLrjw3qeKish7asaPz0zDzftsaCMvrgzynrR06EvaiIwy28y7kTIx0Yee7uH9apmasCc8h8ZzbDjXtu84SgVccIw2bIjMFqNLWTEgsMtU2fSLOfoHncsKXyZONMXigPzy8DmyzHzliBGxOTLnN/bT69vZszOnXdEtyWT5ZWWTQxI4qwd7muzMHnxz/vDBPV+byXsOAFq4cKH5i8Yt9rvn50dfj334uE9gcMYZZ+iBBx5QY2OjSktLzWw/DyHuxXE1AAAgAElEQVRHp+HDh4stQpxcRHRCYlXhyiuvFA8l85wC+5pIrBiwNWmgEkbqqaekl16SFi4cqFpTrx4OgfroR6X58yP7ZM89N/V4HAiOUGT33ScxAztjhv0LeweCh+NdB+L/z39Kzz8vZarCxmF+4gnphRekuXOPN6KvTf0jR4bMasiLL0pRuyVfG2aOI1Uc6fe/X5o1KxLonXfecSR2nKr+85+PzJjyQlT66zOfkbg+lBMvCUYXbd0qZapNie5fNj586lPSKadEAoOlS6PvZtZ33DS2TfES8kxtJ4GBJ7/nnJNZ/UdgwHZctr0xKTxvXuL28cAxB/9s2rTJPOdLTrb4M4nvJxE88AAyiwAEGHzneYPodFRgMHv2bLEqQEaOJH3Tm95kjkT685//LFYNWBm44oordN9995nAYMWKFWb7EQ8dc5rRww8/rA996ENmz9L48ePNwxHRBI/1Ow4kf5mecCivuCLTWxl5oz0GK5MTb0/nL5MTs+iZPJNO3+Fk8pfpiYC9Z4E47Zr6yCMRncLzLl5iGx97zJ97TjrNuzhEP3GS+RsqiUmLTNpykqzfTjpJ4i+TUybLL6tbb397/71HAPDmN7/ZPNfLAUBMyDORz0Q9JxTxXPC1116bsKKLL75Yv/rVr0xgwDPA/PFcQnTqcyoRzxZ85CMfMUeN3nvvveYBBc4/Zf8SDyewD4kIg6ehWVUgWFi2bJnIW15ebk4lYsXgL3/5i5588kl997vf7bMPKpqw++4QcAg4BBwCDoGBQmD//siqALtcDx2K1Mo+c7aR4FAw29jYOFDUXD0OAYeAQ2DwEWD70Mc//nHj0N9111164okndMf/3955wNdZ1f//c9s0o3vvQUtpKRTKll0BEVAUUH+KCijiwr39+Vfcg5/iQkXZMgRkK3vJEgot0NIFtKUrbdqmaZM0SZM04/5f73PzpDc3d52nmTff01d6732e55zzPZ/zPd91xnPDDW4p0csvvyw2F7MXmKVGb775pgj2c2xpVYtQZKMyTsTtt9+uRx55RN/97ndFED8+RaLB2UZxVykAwz/+YZwD1jEFa5p4nJ3ReCrsJQgSLzkrKysT0x3xz7r7N9wQm6PGjfdJSHx2NvqGXRsaYjtbWVya8JK2jNW/8Ua4XXc7d8YWzYeZ1li1KtbGhI0hGWll48jEiRIbEnwTa7NOPNE3V+y4EkLEcX2fVSGcUsUCOsKSviksrdTJ4mnm6HxSRYXE0UmpdgGlK+vVV6Ujj0z3RPJ7paWxRcC+0yjQyS5geL1lj0/yCpJcZedamDVAO3ZIYOQbRmczAu9HYTyzENgnsWuSfL7jGTrhgzA7aVmwDq/7ji/6Az4fPNinhbFnWZsVZr6cvoTWdItUk1FDWJ0UZlMB6+TiTqlLVnzSa8uWxfqSXcI+iU1m9GfCMtesimAHY5i1YOCDYvWdFmOnJPJ55sysyGvzEPoAPZJmI2Gb54Mf5eWxY01YD+ab2NVJG311EJs4kJO++gBPbf36cH2ycmWM1rgDT7JqLjKW9vkuc8YGgdYwspK37SG3fGUBO+nZoJbwAqqs2slmm8MPz+rRNg8hQzAUffHBC+e0Dd8xQuXdYW+FrZPxDD6+Y4S+3LQpHP88/bTELECcrMTwLy0tdcuKsM2DxBL++I3JwfXET+x0bHSC+ompzVKi4CabGPiLTwVJlCIvMktMzDqMT2eAodB9AWWxIH+++SCO+gAt7qSlRJqT/sa4ClMf9YRpI0SQF1p96w3q881HnSidMPmglT/fvGHbCK370idh2gmtKHbfNnYHrhjbAbbwg0/aF1wD3vOpj5BuQKsvttQXZjxTH3++9dGusHkDWsPUGQbXfaGVNpK6klbaGKZPgv4PQ2tX8zpHzIVpI30R8A80+yTq62r+ob4wdUJrGJ0HHuQNgy10hsmH4RumjdAats7u4vUwfYIO2hd8woxn+jFsnWFlQdi+3Bdak4x/jPpktnY2TgHFjU4TBErqGCShoeMuEdn2jYbSEWEikwxkvPwwERA8X99IKCgRMWGAhMnLzAi0+kZAiLoQjfCNEkIvbwIKQyv4UGeCA5mRUTAKiaKGicKHpRXjHiHg2076gSM8whyBRTTCtz7Aw4GBZ33zElXiRR/QigDySUT7fOujfAQ5dfnmZXwQ1YTXfSOMzMiFGc+MDfrSl1baybm6YaJ9zOIQPEkSkcnYPezID0MrESnkK0db+CQMAZKvbCYPkf8wtBJ9pb40CipGVML/8ACBqjB1svM2TD7wgVd988IDyGfffDSZyDb5fB0D6MQhCVPntm2x8eWrS5A/zFYOHZrQWRl+0kYiqWFoRQdRp+/sMzIWjLBFfBJ8h9wKQysyFl7neDOftC/4MOMUhlbOD2c2Ll2AN1kb4AFsrjB17ou9BS1dWSfjGR3kO0YYW2F0ezKsO/maZyiik6mx4g0BQ8AQMAQMAUPAEDAEDAFDoFsQ6DGOAUFES4aAIWAIGAKGgCFgCBgChoAh0D0IeK456BwimS1jlo5VKbz5jReSnHlmbLaPGdFXFhdqxdLROmSPdMwxnUODlWoIGAKGgCFgCBgChoAhYAj0ZQS6fcaAg0JuvDG26Z6lgjgIn/iExCZsEssrp01u0FOLR3gvZ+/LHWttNwQMAUPAEDAEDAFDwBAwBHwQ6FbHgL2Sf/mL9NnP7j3Vjz1+zApwMhOnBOIYTBjTpCNn7/bet+MDhD1rCBgChoAhYAgYAoaAIWAI9GUEutUx4ChzNmnHHyrAAUQ4BWecIV10Uey4czpo27aoOxykL3TWLbfkfit5xQRvIuUgg1xNHHu+cGHsxNNcbSOHdLzySuwgrlxt46ateVqzfu850bnaTtrFS8A4HK23JfaowYccXmepPQIciPLww+2v5/IVXnOAjZHriQPwCKLmcnr++dzWoz1tbHarY8CpWMwIcHpYfBozRrr22theA97UzIlvvEspeAdP/LO5+P2BB3KxVW3bxN4R3jXE6Wa5mnB6ea8Np6Xmatq1K+ramMuHB2wr66f1mz3fDdFLO5x3CLKcs7clTkFmrHGSoKX2CKA/Ma76UsIp4JTQXE+885F3buVy4n2hjPFcTT1tbHarY4CXm+gUBB3PEbFXXSXBENfc1vZla8Ez9mkIGAKGgCFgCBgChoAhYAgYAh2DQLc6BpneG8Xb4C+7TPrRlSO08K1hHdNiK8UQMAQMAUPAEDAEDAFDwBAwBNoh0K2OAS8C5KjSYBkCnyy7CJZe8FLVD39Y+vol1dq8vaAd8XbBEDAEDAFDwBAwBAwBQ8AQMAQ6BoFufY8Bb7HGOWBd6PDhEnsOWF7EMiLWZ/M+A9IPvrhTVVuqFIlM6phWWymGgCFgCBgChoAhYAgYAoaAIdAGgW6dMeA0oosvlm66KUYTTsK3vy198Yt7nYKA2vcdt0PMIFgyBAwBQ8AQMAQMAUPAEDAEDIGOR6DrTe3nnotNCbS0ZX9JnxqTrwd+OE7vO6w4eQurq9V/41A1VpRL23ckfybZVdYkVVZK69fHjj9K9kyqa5zZF+bcPs7f5K+kJFXJqa9z7BLHKGw+Qbr35dTPJd7hzEiOYOCsV9/EG+buvdc3Vwwb2jjA8xhHzvAkT79Bii6eKhVulgbvya7+rVvD0cqUFLvcOQbJJ/GiDXhoyRKfXLFnN29WdNvD0uLx0uCNUl6WRypUV0sc2bR6tV+dAa9zPAVHffkkzjKEh3wT03rF/RTZ2k9R2tgvmn0JHJOyYYM/zwb5fNtIX8J7IcZ0ZEOzIlvqpBrPczzhu8JCKT8/e1yCJ1ljGWZcko8x7VtncG7wW0dLj2+UVlQFlGT+3LQpHK2MZ3gPjHwSx9TRn5zTGKTmiCKvTVW0vlQaUxtcbf9JnfCBb4LXOULN9/gXjlJhbDEd7pvQB8jYVCd0pCqPvoRe2hqk4qGKrpoi3bsiuJL8kzrpT98oHOfEcj6orz6oq4udMRvmnFl4ffPm1Ly+aKKihQ1SRcK4RcaiK4uKkmOQ6ir9D51hZCV8Tn8UeC6JBh/O9l62LBVV0qsTYrK3Nq6/eRreCSNDoBVcffFBByHzfMcItGayt5YeIN23RspL0DGBvQW9vilTnanKo//Rz75jBJkFPuiwhBRZNVe6d3nC1e772fWOwcknx9YPxbWZM4fe534fHXc17iuGfU2FNPcw6aS465m+MpAZUIcemlp4pCqD86NO8qmspSAYFCVw7LGpSk59nYP9582T7i6SPvCB1M8l3lm8WJo9u43DlfhIyt933OFXV1AQ+Bx2mLxfR82AYqpoyFhFOFrwfYdLI4JCM3yGpXXVqpixPHNmhgoSbiNYEcyZdsknZHM/H3xQkaPeI3EU77lHSNnahmvXxpT6IYckKzX1NQQkhhL84yuweM34KaekLjvVHfh84VZFJx6pyAeOlLL1R9hMtGhRbFz6GoXko42+hi/GMs5ziDEd3b5I0f0Ol87wFJf0x7hx0siRqRBMff3WW8ONy2efjeE6IttB1UJCcK7jm1Old8+WZqcmrd2d+++Xzj233eWMF556KtaXo0dnfLTNA5ynivEyZ87ey01StFqKnCpp6t7L7b498YR0+untLme8AD4o9MMPz/homwdwYl5/XTo6hW5r83DCjwULpHe8w9/RRwfhdB9//N4CV0oR7MYPZOjYF1+MyXXW8/ok9Oy0adLQoT65YpsMOWf2VDrOM6GD0O3xL0KKLyJPigyWlFg0Mha5M3Fi/NOZv8N39GUYWYmMhdZRozLXE/8Ezg/BTU5iSZXQLcQEz0p44JFHpLMSLyY8k+znM89IBx4ojR+f7G7qa+igt97yHyOUmMne4tjZ8w6REuOQ8DqOLOPEN2WqM1V5Ye0tZBZr5efPb1dydBFjc1a7660XOKKzC1O2qrwLSbKqDAFDwBAwBAwBQ8AQMAQMAUOgqxEwx6CrEbf6DAFDwBDooQjs7I1vN+uhWBpZhoAhYAj0RgTMMeiNvWY0GwKGgCHQCQjcz7IgS4aAIWAIGAJ9FgFzDPps11vDDQFDwBBoi0Al65ktGQKGgCFgCPRZBMwx6LNd370Nb2pq0qZNm9TICTyWDAFDoNsReJ2NlZYMAUOgVyHw9ttvq4GTiywZAh2EgDkGHQSkFeOHQH19vVauXJnTAq25uVm7OanBkiFgCHQqAoy1JUuWWKChU1G2wnsaArW1tVq8eLEItFkyBDoKgV7jGDRxHrSlnEEAQVbDWds5nKqqqrRw4UIzVnK4j3OpaYzJwsJC9cblRNC+dOlSM5ByiSGtLRkRYMYdPRPlCOgcTgQSLXUdAr3GMXhu2TIRFbKUGwjQl0Q7cjkhtHPd+cnl/utrbVuxYoVGjx6tXbyEpxcmi5qm7rS+aFit4v01OZ7oVxyDXF+Su2PHjpx3fnoSq/Yax2DhG29YNKgncc4+0oISz/VlNrRxDy84smQIGAKdigCBhnXr1tl4S4Ey2GBA9qX0CC/4yvFUV1fneJ7+zeXUF2ZFelL/9RrHYE1JSZ+YMehLm4hyfQYIoW2p9yNQWdM39okge/J835rdQ7oXJxz6c31JRVi4S0pKRNS1L6Xy8vKcn5WORCIaOHBgTu/Vq6ioUHFxcV9i3W5va69xDNaVlOT8dBnc8Pzzz4uB0BcSMwa5PP3/xhtv9IVuzPk2PrDgxZxWvEEHbtmyRaNGjQp+9qrPt956q9fS3hVAr169utcuEQuLz5o1a3J+BglnmFlpHIRcTSyTsiBb1/Zur3AMKqurNaiwsGuR6aba1q9fLyIdlno/An1xXW/v77X2LaioqVF9HzgOsDfPVm7fvl1FRUXtO8+uOARYitGX3mq9devWPtHzfWG5Kvv0+kqwtKcwbV6XE8JaOM/NbUueekrzpkyWNqyXlnvsvueM/C1bpAEDpP79/Zq6bZu0fLlfHp7euTP2FyYvwmzbNlUz5bvc48SezZslNmYXFPjTS1+EobW0VHrzTclXGdPGoiI11jSrP8bWW6ukyvzs6GaNbBha6UtObfBd2oODBo1hjhzduVNVb+9QQd0ERVaulAqz9MG3b4/R6RsBYi9DwOv9sqwrQJ06w+C6Y4e2r9qsVev2KHrEMCnbaukLaGXZSn6WfR/QWlISG8++S16YhQs5pptqahTZuFHyFQeMS8bXoEEB9dl/VleH6xPG5erV0sCB2dfFk2Vlyqut1cCmZkXWI2c9XnQGtmH4p6wsRquvEcdpZtQZd0Rj8cKXNXX4dEVpu9LIQeoMQysymb5El/gkdBA8G6ZOcCGf73hGbsWNaZZsRsCLwx4y0cEYYabTV5ew1AP56qsPwDSOVh9o3Xhmg3GSOjetWCGn8TcWS8sTlqEwRuhHdLVPgu/C0hqMS+SeT+KFg+ifVKfyFBcrUlurSGkSe8XZEb5CS7E2IpcZKz4JGgMd5JOPZ9PI5mhJiZpYzrlihZSfMDOyL/ZWmjrTkh/W3oLX4YMkY3B38XBpec9ZKdL1jsGIEdLYsWlxb3dz8GCNHTFSTYOHSGM9Zg5gVITk6NH+An3TJn86IRyjByPNt43kRRFgRGD0+ORHANDGJAKyHZaJF1AAPnUF+cGHZQeDBwdXsvtEOQ0erDWb12jQsOGxMsZmGelDWIWhlToxtH3zkgce8s0HEkVFWru9TMPGHqroGPomy6EG74RpJ21E8IwZ4+8EYwiGaWNzsxrytqquf39FxoxVTBNnwQY4sQhlaPU1QIJ8vgYafYljGaKdJZWVig4bJo1NY3AmazbGPfJu+PBkd9NfC8MDlLhhgzRypDR0aPryE+9iZOfna+S4sSprKvXDidncELhq7doYrWDkkzBy4aG4Otft3Kmho49W4xB0RBq8kZFx+bKuFnyQ7b55CSwgn33zQRhGVpjxTF6MyZY6q3ftUn/kdDZ6hTqR676OJX0SRh8QsMMADYMPzgi8Tp8npJJXXtHhRxyhBtffCfeRscgdsPVJGOk4BmFoJSAKn/vyOvikkwU4K3l5imI3JNJFHyZey6a9yBBkFjaFT0IHIfPC1ElfpshXV1mpBsa70xcJ0Seuh7W3wtp4jGdo8V3FgoOPPZrQTt7nVLEnZF/59I/Hs1laKx4lZnoUhksAJlMWDMlo//5qRtmlE/qJBWHUBYYEg8snJRto2eRHETBYfdtI2YMHa/WWLSr0rRsPFkb1FebUGdYxgEbqTCKU08KEcB02TLsGbNCAokJp9ChpbJbORVhaUVoMSt8+IdpHFMw3HwAUFanfoIHauq1CjSMw1LJ0aBGsGL2+dWIIoGDpE99oui+/BR1cX69FGzaouWC2NG6s34wBEfgwwhUZQD7f8YxhR3TJF1dJ1Xv2qMEpWc/194HDjvHim9IZA+nKwgDEQPM1QOrq1ISBUVCgWt9xFtYxgO+g1dcAgb/pz7i+bC4sUsGw4YqC9dg0Bk1YXkcOJDgj6bqh9R5GCzMGcbS23sv0hb4cN85/xgAdRJCgpc6mAQMUwUDORq4E+PjqEvQs/ejrkIIBzkhYfKgTpz0hba6t1cjRo1UzIEmQDRkbhmfhuwCfhPoy/qQvoRV+903pHDreYUC/DhrcHsOwTjBtdOPIM4CLDgopY12AMQUPNJaWqjEiRRgLiTMG8DoOSYq8aaEO25fYW/Sl7xghsJDEsbz3mmukok+Fa0PaBoa/meB+hS/IcnYcAn1how0bj4cNG6Z+vtPkHQdzp5fEul5OjLDUuxHIz/NcPtILm1tdX69hKLtempYtW6YxOIyW2iHAXqe+dloT69KH+Aat2iFnFwyBzkeA08J62tHt5hh0fr9bDUkQ4MQIjOZcVljbtm3rtcc/JumypJd2VPbOl2ElbUyKi03R3H+x4u76ejWlaL9d7t0IYHTkspxN1jsczzp58uRkt+yaIdCjENjMDEQPS73CMaitr9cIpuIs5QwCwYu/cllh5fJsSMCIa303jgYZe9FnLh+p24u6wUg1BLJGgDHbF+Rv1oD04gc5rrS/7+Exvbi9PYH0XuEYvLRkiaaNH5/TZ/XCDLV1dRps0589YVx0CA299WVRPo2njQjtXHXwmPUZFWbdtA+I9myHIDBgwAAzIDoESSuktyDQm19KmC3GGzdu1Lhx48R7Vix1DQK9wjEAiiLfzYZdg1+H1rKruloFhYWm3DoU1e4rLJgV6T4KOr/mXXW17uUzueoYsORt9LDh6tfP87jjzofeamhB4M0339TBBx/sXoCZ629Tt07PHoEDDjgg+4d76ZO8uG6E70EDvayt6FFmf3iJoaWuQaBXOAavr1ypWZMm5WxUMujqmt27NWToUBH5IlJpqfcisK2yUvvvv78KOOElh1N5VXVOj8tdu3apqIATzTzen9IL+7uxuVmFAwdq/Pjxve5tsURN8/PzHR/mqoO6LywFJhz0kMtvx43HhzXb8DHGZDUnEOVwYslUX5iZpgtz0enHzjvooIN6HIf2Csegx6HWSQTtqqnR8BEj3ADAIMnlVFlZ6ZRVrrZxfVmZBg8erNra2pwUaLnab4ntWr58ufafMCHn+7CytlajJ050s5W97S2jvPX4wAMPTOw6+92CADJo4sSJynWdEnR44CgGv3P5k03Wo8IcgZrLoPSitjEme6LDY45BD2Ki8ooKzegD059AjqdcxDnLOZ5QUhbF7L2djNE5JcwZ2b2sySinnqigsoGRtccTJkzI5tE++QzHlSKHcBD6QiotLdW0adP6QlNVXl6e83qUGaDRvfgo5d7IiD3eMVi1apUOnjWrN2LrTXPdnj3qKyegsFwKx6AvvLPBmxF6SYZV69ZpGi+dyeG0YcMGTeAFdTme9jQ1aYId75iTvYxD0JfO9CcQ01eWTeHMYzTj/OVqgn9zdUkubeuJ7zrq8Y4BEbvpkyblKs+3adeu+noN7SPHsiK8Oc2GjYOWeicCb6xZ404L6ytrXHtnL2VHNe8xGMDbYHtxslOJknceMjbXN6gmb3nuXy0rK3PLxAhg5GrCVhgZ5u3xvQAQZjtn9cDAd7c5Brx0hTe+cUZturRz505NHj8+3SM5c6+RjUT9+7vNx711Wj/bzgj6PVdnDFaWlLiTUrLFozc+t3rDBs2aMjmnTyXqjf2SSHOuy5KgvTgGzDBbaosAenZsH1gO17bVfeMXMwVsss7lE/BYGsasCCfE5VriKNZTTjmlx51EmddZQNOZGP+cFsHGJ9KaHTv06r33qnDsWD3x9NPKq67WYSeeqPNPP90xd79IpN0O+6r16zVvxAgV19RIpaXShsrsSd6zR9qxQyoulvI8m1pRIYXxwrdvl3buDJeXN1SWlCg/OkMbFy3S7GwjeLRx40YpzJr93bvD0Qo+4DpoUPb9wZOctkRf8ldZKW0vy75+1siG7RPqHjDAj1ZwZYo2xMtVqsrLNbWuTtpdF+ubXQOzqxseD9NO6oJe8PHldfohDK67dimSt1vV27Yqun69lJ/lGItG945L32OIGVvwepi+LC/3bydjkpNNyuBTzxNO6EsCH1VV2fV9/FP0Z5g+YVzyJs2WwwtwwK9/+GFd8p73tJOt8dXl0T5Jkaoq5Q+s9qsbfELQWrl1q4aNHq2Na9dq8pgx2tPYKHRAfqa+pW3wwcDYmIo42vtLFeNUDR0b0gSSyBuCVie3woyThobw+iDg136e8TvwCPJKqi4p0cjaOqmxKXPbA7mere4JmAi9h5z01QfQGVbXknfTplj+gA4+eeliaakijWXKS9Zn6CBOi6NvfBK8k6y8bMoIxqXvKUm0kTwp5GQB+on+TqbHkTtheB1aeWeA7/Ik9Fagg7LBJP6ZNDyQX1uraHmFNhYvb9+efbG30tQZT1q77+CN7PEdI8isuHHpym2x3Zqr+rVvW7uKs7uAs4j9TUCImcKhId7Dk6Umb0/QvffeqxtvvFE//OEPdfTRR+u1117Tr371K/35z39268G+9rWvuU2Xs2fP1o9//GNXwLjBg3XQkCG67bnn9JlzztHQoiL9/f77deF992na5Ml636mnav473uGeveW++3TheeepoqxM+82erU1vNijSsEeq8zg2kIGPYoZhMymbxCaSD+Xsm3BGmppC5Y2Sj/zNTWpgoGdbP+0kXyTiS21oWh2uYYzmhgatf/ttzZw6VZGmJkUaG7JvZ0hcWxVAtngGKNI+cI3LR2SmdMcOTc6w2bF6926NHzpUgwuliCsjS+XOs/RnXJ0BOWk/oTXgWV/HIEx9ENPUpGikSdHG5pgSaU4/+9dKf3PzXlr57pMCWuEFnwSuIfhnSGGh8iJSXoi8rh/pF9++pF1h6iMfPECdAwZoY0mJfnvddXpx6VK9/OSTuvTjH9ecmTNV17JkkaBNkBpbaIw2Nsp996HZg9Yt27bpDzfeqFEjRmjFa6/pwDlzVNXYqNNPOEELFi/WytWrVVVTow+ccYbOffe7NSzZCx9pX8AHLW2ONDQo0og8ySC3M90PAEn8hH/C5IXOeFoTy033O8jn6xgk0FpbVaWCiDSG8+4z9WtQZzq6kt0L8vkGUUKOS0dCwOsJ8q6hulpTxozR2o2NjifatZk6SZmwiD2193/4zoPX92ZsGc/U61FndU2NVr7yio6ZOTNlvoZgLOD0JZYdhl8hmjbG0QodOOvx8qJN24If5An4ILiW4rO5qUl/u/12/fupp/Sb//1f5RUXa07Ckpqq6moVFRaqsb5ekaLG5OOPOsO2M2y+LNvYrunQmsg/lFVfr2jTgPb9166AvRf++9//Chv7Jz/5id797neLk+Quu+wyd239+vW6/vrrXX995jOf0Tvf+c69GbP8Ftox+MAHPqDf/va3GjNmjKuKY5cgginLf/7zn/rc5z6nI4880h3ZGNAypKBAh5x8sn51wQXBJf3ktNNUVVWl973vfXr9llt0yU9/qo9//OP617/+pVN4js2N7DEYskNNEyZq7YAKt96ssLDQzTIEzMqpC0wlx6fd5eUayGCB4eKUYNFwZyoAACAASURBVPwzwXdmN9544w330027Njdr8NixboqHDSK8eS+rRLQOQT57tnscrw3asto8M2SI8vbfX9HCIomNgC1lZKwXJwLh0RJBy/h8/AOLF2dfT3w+oqHUGae4OSEhODeaNYGDkkWP+vVTWW2tCidMUEPDaInZpGzbGZZWHCb6BHp9UklJbLDOmNGaa1dZmf6zeLEOGTZMc+bMcVHYZGvsi+vrtd/8+dpz3+MSJ00Nz3LGAB5mNiUNJsHSEKaQWxM8gJAhX4KibH0m1Rfamaa+VNmahg5V0cBR0pYhLWMsS3HCjAHRLHDxjboQtctiPLejmQhYgE+7m8kvMHU96aCDFB06VCsqKnTe7OOTP5jqKk4PciPD+liEOi/v4WjUqVOnugMIRm7dqqHRqBPuXONYQiI/HE6ALIEHkFl8wn/cx2kdUVen5559Vi+/+aa7duyxx2rhrbfqnnvu0c9vuUXs2eLcbHhn+PDhbuPbO97xDg2fMiXWihEjVFVUpB/ddptTOkHTmHngdJDE016gp9/KlYpkwT9PP/20vvvd7+ojH/mIq/+ohgZVDxsmuPiX//iHk7Hv/MAHnM4oLi7W/E9/WhdddJHTJa6efv2crmD54doNG1S5a5fTGyXRqD5y4YVa+Ostio4bp4fWrNH8+fNdYAps+EM3oGea2NM0bpz7DY7Jxm7Q5jafRUWqXLtWxQ0Nbvnr22+/rcWLF+t//ud/XFSO/VKcjEQfoJv4dN9Z5lFRoaJZs5weWMk7eVoMoMRNh/Ql0b7W09qIMIJr/DhvIQqeoXx4gnx8pz9dQgcxxlr6ZCC6ZPp0ba9a1HqtTdvifxDBZFz66hKMHk4CiotO0paMeg89QkQ8Df+wjp72Ll261I0RsMZeOGjkSDVNmaKCFhskaEblmjWaPn26mveMV8OA+vZlI2OROy0rGYJ8GT/pD+RWHK2MC5ZqYYzxrgjen8BGbzY/t5HPyNjp06WEo0VramocnwZ9znr6P/zhD1qyZIk7ue+EOXM0fMYMDR02zGHJEdjYEwHvNIM3QaqhQ9rQ5dqydm37axkbqdhsAX05fryr657bbtPrr7/u7Dv4nhfHMW6wibCNWo9L3b1be+rqNGDmTIcJthkYIEf5xCaAJx588EEn7+DZS77+dX35d7/TsD179LOTThJ4TJkyxZX/wvLles973qNm+JpTiQaMbG0PeZ3tB6/jjMb1STZNdM/Ae7NnO95izJIol/5j7T/toj+Ce63loms9xgiyC551s47Yoy20Mm4Lpk1TP34P2S7NTmOfPPVUa/V8OfHEE508hueQbeDKNfge+xvbHL0RNmWpyZMXT8WBgELhnH766e5BmPe6667Tv//9bzdbkOlEBO7/5S9/cR3CFAgbaWCOu+66q41ggSkvv/wrmjx5snt5FIMDwYhTwmBh2oQBduqppzoH5eo//UkfP+ooTYpGnfJJ3orYVdZ6/exnP2tl9LGNjVp1/fVuGRQD///9v//nBj0dQX10Ripn4a1NmxRzC6T7779fKMQjjjjC0XfGGWfsFfwJBFURyXOGtmcUNaGcTD8ZzC+//LIzHJpffFGHH3KIww/FFuAYKGL6kvYj4PmeLDGYYMxf/vKXbmCj1A899FAnvOfOnZsyH45DZ2+aggdPmTpVbxcXa7/Ro/cqz2QNSXMNgbVu3TrBg8yKIRxxYGfOnNmq6JNlBxuES0cm+G/t2rViNg5nFp6fNnasmmtrNbQDKsJ4YWxhBKY73WPTli06e/7p0rIQM2sdQGcuFIEzgOxjTDIeMF5RpPUrVqjmrbfcb5ZicrwvcpK+xwDEAIEHkEeMWeQv/dV/61bVDx2qgcOH69e//rVbm0sfIneQzxiz5KNeyoF/UID7jxvnZB3PvvLKK1q9+kGnaJC1lIthQB7eMMxYpwyUPc/P2bpVB2Z4LwlKkDL++Mc/6qijjnLyUyi7efOc0t+6datT9PGbDDEKHn30UX3lK19xASiwYSw11dRo/cqVOurd73a4gV2QiKRt2fKyFixY4Ax49BNKGeyoo9/27Sr/+9+d/qBdrF0mopbpuNPyykpde9ddemHTJjfmcU7oi09/+tNCxtEHGPw4a+DJfRypIpy40lINf+IJdw/9hhzFqGH8sr6Yd7pAGxgRWIEecA8S7Q50KG296qqrxBgFC+TypEmTnL777Gc/G2Rp8wlN6RL18pe1k5SmMNqNUfvAAw+4dkL7hz/84VadB83BOyfAomHzZsUfLYKu4Y/gHDwPTp///OedPUBbjz/+eNe3REqPHjNG4+fN09yjj3Z4oZNbjdQ0NAa34Gf6zjeB5wsvvOB4j0/4gPGH3nvXu97lfkM/OhD7hPE7ZtcuVW3cqPw9e9x9yoA/oAEc4Hvay5jCKD3hhBOcfvn1D3+oa269VZvr690Y4KWZ2CqXXnqpk9HIAWR1EJBL1RbGK3zngp6pHkpynfahQ6ELYxN9Bt2UxR9tZ8WIOxmppkZ1ZWXKf/55RyP7Q7Ej4G9kG3qKT8bKBRdc4HQoNhQy5bHrr9cdd9yhFStWuHEBL8IrBDagmRgLfPHwww87TB977DFdcskl2vnGG9p/wADtXLfOlYs8onyCH9DqnIck7eIStG3asMGtdMH4Jx954LHbbrvN8R19d9xxx7nxDE381eC8p7EpoXPRokXOxrr44ovdWD3zzDPbUQEPYFc4p6Hd3cwXkBM4pDgEyLtjjjnGZaJPkJm/+c1vHMaZS2r/xD45BoBJwxAEdHoQsUCgM0C++c1vuo6mczMlmIOEs4HiQFARFZhBtHb+fAferbfeqk9+8qOu8xAu//nPf9yAhCnZdMbggBl/8YtfuMG4bOlSLTr5ZOXdeKP+edddKUl45plnXJ4//elP2m+//RyzD1m2TKtGj3adCjP87//+r2N2GIXXkPPcTTfdpCeeeMIJLYQSUbszDztMF/zqV/rv+97nPGwYBCZF8Tz//POOWcCJqBllQDMDjFTfssY2JaEdcAPav/CFLzjFiAA6oKlJ9152mes/hABtZYAg0MD1nHPOccbEJz/5SWcQ4OjA0AMrK1WZn6+xEye65zGY+Xv/+9+vv/71r/rb3/6mr3/9667f4AUEJ7NLRw4dqsjw4Q6Tdev6OyHYAc1qUwTGwRVXXOH6Dlqnjx+vzdu3a+KUKa0GPf2FQoV/52GciGBQbC04GKCEynbtUnlpqWZNn67vfOc7euihh5yw+vnPf+6c1u9///tOoNNW+hRBlkrwIvRTOZJtiM/iB1EqDCamEsEc3ho2eLCOmjFDPzjkEG3essWNG4QiSoe+BH+cbRICkbb+4x//0Be/+MXWa/A/Cp181PHBD35Q5513Xkq6q3bv1oC8/llQ3DGPOANJcv3w3vPO8y4UmfLqokUumIGTBx4Yy/R3ssQMmDMYW04CpH8xrHHy4xNY4eASrUGBZpswCjCaiBAi1FGawfiL3nabouef7/oKhxujD1ly8sknu9lUZCr9iBL76U9/qt/97nfOeIw++6wi8+YpMmJEzPhuISYwLFEmRNOhGdmDUXHWWWfpY2efrWlTpjj6MUpOPXWSWyYK3yIPGC9gASY4xRjVL730khvf/SsqlPfoo85gxslh7CQmZB/GL7PIlJWYMHASEzoB45m+wgGiDMo+7fDDVbdhgwYddZRzNODtIPHsgw/e7Yw2+JjoJGOc7xgwEzZs0EtiUi3PGXf0F/oLw+nyyy93xWB8JaZLvvtdzZw0ycm2mKESC96ADYoY/YfR/uyzzzrHCtmOYfiXK6/UvHHjXL/9/e9/d2MJuQqWCxcuFLIKYxps0HuMazCEFwbv2aOKfv0crbSB52g/PAO/wAOBTmEs33777c7RGNjUpJP320/HHJ/dDBd6YNOmTWLmiASG01v0cSIO6X4/+eSTWltWpscff1yHHHKIM3rhLwwUxi5jBLxOOukkJyeRNbMnT9acUaO058knnaziBCWwAB/6iFkCAjDwKHoE3vnQhz7kDKH7/vxnPXTTTRr0r3+5sqkLmRjvXELv73//e6eLAtox7DCoHly4sNUxgD7azbhIHN9BvuATvOArHOQvf/nLbtzTNzjUYEh92DHoB3QeTlxhJKKCQYNUu2ePGzvYKTwLZuhW6AEbeIMl2Ywv2v+LH/xA0fJyXf/cc3r11VedI09QDz75wQ9+4NrqdFVZmbNP4OPDDz+8zctDkVnoAfA/++yz3ZgHR3gfvk2V4E90OEvGsbcwupGBGM04YBj86M4rr7zS0Vqybp3Kli9XM7M4BQWuj9E94MmYYkwEPAx/Bwn7aPb736/oCSc4/KkDbOFnlqgT8K2pKXSYL1r0YutsDPcL+vdXbU2N6qNRN7sAHy9btszJGfD70Y9+5MZhUFf8J+P+/666yvEX16mTviJYEvQf9OK8QwNtQv6VlZRo+qxZOp7ljwsWODxxaFglg0wkoE2bqZ+VNYxd8Fv72ms6NWHGKJ4e3++MEWQfs83YnowL+uj//u//dPPNN7tALX0XJiXXiFmWRGcDJAyNsRkkGA6n4bDDDnMGfnDd55MyGOREZ2EUfpPwhIKEksTbgsnw9FCUAMS1p556SmeeeqoevfZaLSorc0oOI5dBE5RFOQxIZjduuOGGVsPJTR3l5zumD4xGnB2m4xH+/DGgvvWtbzlliIOCYci1px54QKfPmeOEN/i8+OKLjqkCmln7FUzL0bEMWJQ1hifKa7AbMG3fekzbGMh0enwCe5gv27c8YCQzmIhy4Zi4dMcd0vnnu6933323E75E2VCSGE44TQg3+gFDmqgYAmPW2LGaPnmyFi5d6pwHnEAMIwYBRgjGM+3DiEDQ4/wweHhXw6hp03T4qSh8Of555JFHHJ8gODAQ8LiDPmIwUj84TeF86ngAknxHWDFYUT4YtdBQUFqq+cceqyfWrXNOHe1EKCCE6Ws+ifZQB7xEtA4M5uy3n94C4+HDnRJG8IM5fIfRTNQCRwvDDB7lOxjED0baDd9cd91VTnAgYBD68ArOLPXxhzIjEjRn0CCNHzhQ6cxtlBLCC0EETxNhfmPpUr36+OP6whe/qN21tU6AYcBg2NE+hAeRD/iF+siP0Ebw1m3cqFH33efQRFkRjQJHFBSKC4ygGaMO+jEoMWJI8GxeXuoztMEFLDHsgj5N0m1JL9EfzLbRX4wvfh82Zow2NTaqf1GRqztQQLQLTKEbBYiyQdDTbnhgdFOT3nrlFV27cKHjR8Y1+6RoHzjALygBxhoyAcHOeHHOVMthGChksCchkMEFfod/UcjwLnUyVqG3sbxcF3/+8zoiRWAEpw5eQU7wfJDA1C0Ha5neJtBBAn8Sz/NMIA9Q3q2RUvJieCcxvl1mNhhHIo5G+pLE8p7rrrhC8086yV2Ht5ndZmkoipZZMbBHrtKHgYPrAgQDB+q/v/61nty9242Ha665xslhZHd8wmBG7ri2xd/I8J1+RYaQoMulnTtVBO35+a5vMa5JlE29GIj8kT760Y+6z9b/nnhCx7fMbKNL6C9kMkYhMosIH7zKmCHB6yjaM048UZ8766x2y0+ok/FEog/PP/989+cuSDruyCM1lmVsRx/tHDLqC57/xCc+ETzmPhkrGJo4jOC++KGHdOiRR7plJOgtriELMZCpl7JwPhiv8CyOPX3z9+uv1+IRIzRowQIn54OlS/GVYXAjb6AFQxdDk/xE77c0NamuqcnRyzgHf2QVPE7gJwhkxZdX19CgJ596SvmjRjnDOAhCBM9gI8A/yCoiw/AOEejVS5boxcce09QpU5y+RbZSPhFW+pBxRl8EvE55jHl05jv791fJ6NG687HHnK2BsY1B9KlPfcpVSx5oXrLk32I5Ek4HY5YlxuyzYVbtve99r5Mb0AdvMybhM+hgnGEgJib4hYg3jmaQoJW13qRgTyXODH2KPFr70EM6H9ulxTDEEQF7aEJW8Rx9wlgL+IOyBhC0yM93fRzUhZ2Dk4lcpT0kbAp4HayI6COvI6WlKr/iCifTeA75hD7HuKV/CLoyxltlR1CBpOeef16X33ijG9OJwS7wDWwgsjCDRZ+wAbrmtddUcOyxTs/EFdf6NRiXrRdavvTHvmuJyHMJWQ4fBDxaV9ff9eFNN13ngjlgAE/Wb9qk9cuW6bTPfKZVhoI3xjl1BbqZ1SD0p6NTrCpt0D0LFzrHIQhKJ9KEQ8W4A2vwhT+ga0gkohXLlun1pUud08DYI7HGn2fAGNlKIAr7D/2FXGAp6wGjR+vQhQudHcHz9DVjGTmHLoFnA4zgCRxV9EmyRFCLdoLTV7/61dZHKAu60W1h0z45BjAfyvXaa69trZ+BjICkMShaIj5hE+XDgIBFhzIdHp9Q6EECXBKdT2KaiU0dF597rj512GF6bdkyt6wHj44IBDTCHLfccosTMomCzBUS9x8dyHrXgB4GGjMazCDQToQef5GSEjWsXavaefPaeO1BUdDFgIYODGgYDcMRgVS5e7cK4vZCYITg6CBMGQjQS14YAQbEuIUB5xCBP/lkVdXVOUWQOJCDulHa5GtVsMGNlk88ThLYMFWLwIDJEOIwOXnpBxTSwFdfVf2cOWpsmR4Migoik/wGH4wyeIE8pH9cfbVeX7lSJwwc6AYFTgCCCueKNjIQMFoxzqEDg4T2YuBObW7WJ8aMcc5JMoFN+URVMbKpm3xukLUcYchAOu2001xbKBcFHCzFCBwDoiEoLGg6cOhQ3fOPf+jkT37SKWTKR2GQKBfHI0goHv6I3OKUjm2ZBaJ/EZwXXPBhFx0ET3gIPDE6cIbADCGEIJjF+udIRBd9/eut0aygDj5xyjAQWJIRRMZwwA+bNUsfnDVLeUceKV5WhZL8xje+4SKcKB8MBtdvLQYTfAXP8zlszRoNPOmkVmOferhHHTg78B3CkZkgBA68Cs+TGJtETKGdCCA8SYSFtjE2EIoY52DPngznOA4erONSROldoW4PbaObdWI8o4ioh/buWLBA+QceqMuvuMIpQNpOmfANNMOrtIln+aNfUZQTR43SuUcd5TBhLLOEABoxUsCK2T/oBSMiscwCIcydMRyJiH/MQtFXOMkodnABD57Bsecaihl66OONS5fqT1deqTPWr3dOGfIsSPA6ThkzAYERGtzL9Bkot+C5wFAPfvt+svTyT5ddpmEJ0UPkK0YLKX5pS1B+oMBOnDVLR591lpt6hzcItDCOPvaxj7lHr776aocx+HZ0Qg4EhhSycN48v5fRgSUONnsFWDLB2MfRwvAkBYdrfBjnjlNMPJOTxTgGLbMUjP9UCR6H3/ljfG2ZMEH7nXOOmqLRpIZWwAfwH3mIzCNrTz/sMM1oatI/i4udjEMGkZCnyEcMW3ifgA36mXHCGMBRKVi3ToUHHqjHn3vOGV44vch96MFpZqyjhwmABImx/+jrr2vy/vvr81/5SlJaA+MGw/d73/ueGzvwz2mHHKKL5szRwPe8JyiuzSeOULoET+EMMp6gA91B8AZjD7ox6HD4GI84Ucj7GcyK9+un/Y8/3ukXxh8GKHgiv+gzZDjyj9kbAmJBYhYZLIKAYXA92Weghxmfx7BvLC4FejIYX/R9NmVSBP1NW9DRBCdjWzRm6447/uCwR96juyMvvKCR73+/k0fINWReILvpR/QI2LEaItE4fv6VV1ywN2hDHOnua8BT/Aj4kO9uLKbh8cRy0v0mEAJPMgPzyiuxJ5khpf38uWVgI0boSIIEcYEV5Cy4kMAU+Y/uoh+YZSGx8uHQww9vlW/uYsJ/yHYSMzroa/oIPqp86SXVEsCsqXFOM+MKG43xwV8QcIH/WOZDsA1bo6C6Wnnr12vTpEnuOfbRBjYsuuPuu591s+E4DNyDJ+E17LVzEmjjJ31Ge9DzJMqARuwenCbkWNiUWkplUSKRCDogXrExc4AQoFNZGxgI7SyKa/cIDcTIQJj269fgporaPZThAp1Dgh7+vv3tb7toBJ94cygWIlnZpvgBESi6wGt3ZXDcXn6+8ocNS1kkjBS/5gz8mB5GoAcJgUYkDIGPEMDgAUsiNnyHQamHgfv2ffe5qcYVLjqyxBku8XRSJoxNmfHR7KCuZJ/xxkZgAATPBb8RCEyPpkrxxnsgPGbPnKnLf/MbXf77v2n5crlIFeM6MCIoi8gJy3bgHwwM2sxAKX3mGSesiJAxJQo2Qf+SL1AMwR6TZHTxPH/0XdB/wXMYlAw22u7aX1ISc6IyKCfy04f84VwxKPNb+A7D9SMfuUKnnnpiUE3ST5wKMBqyfbvuuftuF8khAsXghl9IKHP2urBsAGWemNwxj5GIiyLRNoxeUrCmN/F5fjMm9PTTUssMQPwzQZu4hkOE0AM7lAqRudqWtcvgTh+tWvWmM6hwQBHgKCiWrbA0hWg7BjXRFQTlquXL9c7TT9c1117r5EV8vXwnwoxQxIlvk5g1mzdPp7UECagbZYegD5QB9MFDCGUSdC946CHNJwrcslyC68gXxj797mYj4sYfWDNFfuedd2r1hlW65+47dfY5B7kIFPcYA5TbZuy3IVSqZJldY6NzFpGVGFQXXnihewpjGcUTb3QkZO+yn8jrc888U2PjAi2+lcO7RCT5Y5kLyhSlxawTM4Vg2RmJeoOgDryZMKmaVZUYGRigBG34hHZ4Cb2DDHOzDhyR24UJvprOplKO8M7ypJ/A+J7B/oQNG5zRQh8wI0SiTBxgZBJtwljEMOE6ARoMmn4vvSQddpjedfbZLjjCsgxmDAhIoW8wUngeXMCNxDgtLSnR+RdfnNQpcA+1/BfI34BWLg9siXrHP+f7PaCFPkSXBvqEwBQyPZChrlw25VJnSzu4FsjIwOFBZjGLwgwOziLGJuP+E7/+tX7xl784LHxp7MjnoYegDXoexwA5GYwD2uwSG3PjnBqu4ZjFJ+QeOoVxGgRx/8Cy61GjnI6Nf7arv+M0wavoeRwDHJjAkM6WFvqRhC7D5sNxZKaEIMCC3/3OGdLZlAXfkpD7AzFY9ttPM+I26CfiGl8mvO6cDI7JbW7WrPnzndxnlprxybhipptVK+hLHD5o5Du2BAHivEGD9N74QiU3XlkKTMCNRGCO4ADLl7CPAscmIVtWP/fJMaDT8FDiE1MbHZUwevFoCwBUezeY7Uv5AEcEk4gAAyHVhq19qcM3L0IWhToOhmtJMArTfOeee25wKeXnvLlzdeUHP6gtlZVucw7RL9qFccaAIJqCQgiz0SplpSFvjB82TKPiTjJKVgyOEH+kYA38l770JbdJ8ZvXX+9mFxg8OFdM6QYJRw8FFwi44Hq2n8mchWzzBs+BOQN0eosgwXAJDNTgmWSf9JNL27frg2edpd0TJrhoN9E1+hMHGWEGHvFOW7KyOusaAoyEcMY5HdfinBCVv+iiM3XzzX93RgN7VViCQBQ/3vliKRaRrLdXr9aokhL97bnnnBHG1HuwXITyMexZTxu/PDFVm5A/CGXGSpCgLx5z6GYpmVK8ICdZv2PEM9PDrACJ6emvfOVq9x2HgoSBlC4Rgf/ql76k8z/3OSf0mZ3E+IIenHQEeE9JgcPSEfSgCInQ4RDgQDJ711kJgy6ImHVEHTi4OMFEiuGLxFnqjqijq8pgORzBFQwM2BjjmTGJcU/kPD4lLifBEOJaMHMSOLCsEGDGgZlRDC0S++zKi4s1KG62O77srvyOHCWYQt/179/cuncnDA0s2UK2sccHefbMo4/q4tNPd8ZqmPI6Mg+2EbOwgUxOjPhnWxcylhlS9jnhWOAML1q2TPfeeWe2RXTqcxygEETg3SqQkLURLGRpDQFGDG1m6Pu98ELI0vY9GzYKjg7jkcQKhYsvfr/blxtfOnYgAeG8a66Jv+y+c50l4YFTjDMcOMTtHva8sE+OAUZPZyaYlL+OTnRKWOOxo2kJymPZwkktBgeKlShmvLEUPJfuk0gBa2RRBHiiMBXCg6gAa2hb9xWkK6ST7xUOGKDjUqy5zqZqFBrr6lmCg8AmAk2Uh4gJsyFsNuoMnsmGNp5BUDPYB3Fe8T4knAGUM8syWEqDAGc5FQ5RdyfwhdcGtSwPw1CePXtSq8PCfpxkKdiXMH2//dS4YIF+8973auHrr7v9LDgHKHOcChQ746E18pWssIRriYZOwm3vn0z1E1WNn3lrdd48S8ORw6HDiSUwgcHMem6CAT0ldbQsxzljTwszUvHR4Y5uL/3O3z4OtzZkEV1m42gupOD0mpUrOaV1nHO6g2UsYdpH9JbZFIKC4I5RifN31aWXqrAHOAbIJhxRPiGHaOqAAeFsCMrAYUYOEZSZPGWKTmk5qCIMdh2dh/XzyCcmBsImdAxyGXsDp4/+/e2ll4YtrsPzBU4BBQczImEroSxmA3H+gxmAsGV1RD5WF6ALSMw+Jwv4pdNrtGFfVuSka0O4EZOuRLsXCgG3OYVp3JY1exi8mSKSySqCWYigYniwJ4J10TAcEZ6eMGMAzSiTfUm0kWkyNkjjCBAFYMMP03z7Kjz2hS7y4hiwrrF/sCgyZIFB37OBjSVFbHRmujeIEIUstsOyEVWNMC1dGhPYLRMkWZeP0uVoXmZYOMUExwfc+M6UKt+7M2HYsqGexFIOjNx9SZTHX2ctqdkX2jozb0/h185sY08uO1j2CY3ogQsv/GoovRK0kRk6ZhKIpLPMhqWeLA1MtRY9yNeVn8iWIMV/D675fCKHWZbBn3vb9uuv+2Tv1GeTLScNWyHGMn8uPfNM2GJ6Rb6OxG1fGsxKEf5I7OGaNavt6pt9KXtf8+4dQftakuXvUARg3n2J4rFWlnXMzBqwDjvsVGOHNoplKLxnYv78DimW6AYby1iHh9EVRKQ7pPB9KISTLmo76N0FwZrXdGsY94HU0FnBnpDchtKtbj1kv36xkxl8C8Rw4XQY+o8TiHBmk52i4ltuRz8fLGnr6HKtPEOgqxBgpgAjvqMSwScincxkhtmY3VF0WDmGQG9HgJmtxPXfrAAAH1hJREFUgw9OdxZh17bQHIOuxTur2ohysH5+Xz3bwBvNqtIuemhIYaGGDBvWQTtG2AO0n/vrIvKzqsbNWkyZoq1ZPd37H2Kj1KGH7j0hzLdFwYk3LBHrqakzl8P01DYbXYZAJgSYEXLyLsSJTZnKtvuGQF9BgMBYmnNcuhwGcwy6HPLMFbJmm70C+zJjkLkWe8IQ6BgEWNrVk5YSdEyrrBRDwBAwBAwBQ6DvIZD9azr7Hjbd1mLWcZpT0G3wW8WGgCFgCBgChoAhYAj0SQS6fsbg0UdjZwj7wF1bK60eqcjmbdI6ji7NMjU3S7xYhAPzfXdHMjXKq3l9Ey9+2rNHanmpllf2ykrpzTelDadINz+bfVYOMmZTlG8bqYH1oTffnH1dwZPgw/GPWZ6xHWQTfek2hxVJL81QtGm9NGhP6+20X8LS2nLevl58MW3x7W7Sjxx3kvDip3bPJbtQViatu0vR1ycrElkr9c/ylCLwgW8XL05Waupr5IEP4PWEI4RTZ2q5U14uFRdnfKzdA5xKVJKnyOYGRfW21C/a7pGkF9h/sWsXr73259kgn28b6Uv4IMSYjqweoH5rK6RtsRdVJW1TsovUx9EocZshkz2W9NrWrfs2LlO8LTNpXVxsOWFKy46V/rVWGl+Z8tF2N7ZvD0frzp2x/vA9zYYj/qB30aK9pDRHFHlxf6l8izSq7cuk9j6k2AbSlheOtbme6QdynTM/ly3L9GTb+/B6VZX0xhttr2fzC32wenU2T7Z9BmyQI/HH824eLi2fLt2cQa5Q51tv+ct19CwHLvjqA8YleTdtatuGbH4ht8An1fh6bYqihQ3SpoRFnWADnWH4jr4MIyvhdd6f4Dsu4Tn+FixIjcjrkyX2rW5PwHDHDl7RnjpfqjvgCu/44oMOQub5jhHoyGBvRV45WLr1Dal/c1uqA3sLnvVNGepMWRw8EMbeCnh9w4Z2RUdWHCnd/Gq76911oesdgzPPlJK8ZjwtALxyurlC0bmHSSelfbLtTQQkTMqZ+L5M/vzz0kk+lbVUzdlhCI4wJ+9wKhGnsTxcJF10Udu2pPuFEckbpuNeuJHu8Tb3eAkWr+v2TeDDC6EyvJOgXbEIcs7QHjJWapIi/3OstPf1De0eb3MhLK04aThNCS93aVN2sh8lJby9R5oxI9nd9NcefFA66mxFBknRjx8nxV4BkD4Pd1EeKMpDDsn8bPwTCGSMD/gnlaKMfz7+Oy84O+WU+CvZfYfPF25VdNrRilx0vJTt/CPGEkYd4zLDuwDaEUI+2ug7njEGUXYhxnT06kVq3u9w6QxPcUl/jBsnJXkZXbt2JV649VYp7h0dibdT/n722Riuce9ESfls/I3gBV4bpkrnHCL5vLD+/vulLN63El+d+/7UU7G+DN7h0e6BFBcwsggStLzYxz3VJDm39FRJsYM+kmd+4gnp9NOT30t3FXwwtFrehpru0Tb3MAYwIo4+us3lrH5gDLJZ2Dfggw7C+Dj++L3VrOQFIZIuyiBXCJ4g1311CXqWN3v7viSvtDQWzDiVjvNM6CBkSMI7GVpLGS5FeOVIYtHBC85838QN39GXYWQlMhZaR41qJS+rL+CDs3bAAakff5DXIUs6K+GRRx6Rzkq8mPBMsp+cSnTggZLvccroIAx03zECDRnsrehOSRccKQ1IIBhex6kMs6k+Q50JNe39GdbeQmYR+E1y+EqUuMFFB++tI/HbVVclXunU39mq8k4lwgo3BAwBQ8AQMAQMAUPAEDAEDIHuRcAcg+7F32o3BAwBQ8AQMAQMAUPAEDAEegQC5hj0iG4wIgwBQ8AQMAQMAUPAEDAEDIHuRcAcg+7F32o3BAwBQ8AQMAQMAUPAEDAEegQC5hj0iG4wIgwBQ8AQMAQMAUPAEDAEDIHuRcAcg+7F32o3BAwBQ8AQMAQMAUPAEDAEegQC5hj0iG4wIgwBQ8AQMAQMAUPAEDAEDIHuRcAcg+7F32o3BAwBQ8AQMAQMAUPAEDAEegQC5hj0iG4wIgwBQ8AQMAQMAUPAEDAEDIHuRcAcg+7F32o3BAwBQ8AQMAQMAUPAEDAEegQC5hj0iG4wIgwBQ8AQMAQMAUPAEDAEDIHuRcAcg+7F32o3BAwBQ8AQMAQMAUPAEDAEegQCeV1ORXW1VFnpV21NjdTQoAiflY3Z562vl2prY/Xl52efjyfr6vzpJF9V1d46/Wrcm29Pf6myNvvcu3fHaG1oyD5P8CR5fPuDvOCza5fU3ByUlN0nfdivn9RcIO3OV7Rij5Ste9rYGI7WoE7fdsKrYfmgvl7RykpFdw9QpLJBypb9oDXoz+wQjT0Fnwe8nuc5rBknvthQq8OnXpHa3VJFg9Q/S4LhmaCN1O2Tgjb6jmfGZdi+3IPsYYxFfSiV6EvGSP9sgYkrPiyv00bayhjzSfQlif7YtUeq9BjXe3jeU6a31rVLGjAgVne2/4Mp2MbX2RhVpDZf0V3IiDT9FJbXwTSxzmzoBZuAZ7N5Pv4Z8lVU+PNPMrlV1U+qy5cq6+JraP89GCO+uoTxTL9E02DfvrYYrwZ1Jruf7hr5qDNVqslTVFGpsqntE+ATZnxRV1j+oS/J7yub4Tvojef1tq2RavJisjfRNgo7LgMZUlSUWFP63/BAINfTP9n+boYxEq3NlyrqpfxI27zgkyFv2wxxv8LyXcDrvmOE/k9VZ11h5rEZR3pnf/W0IDqAnO3b/Y1J8lRL0dJtUvHu7Ilg8JeXSyUl/sKVTiwuzr6u4MmdO2ODOExelAC01g30q5s2btki+RpL0MygCkMr+ECrr/AoK4sJj4J6qWK4VFIp1SQI7gDLxM+wtO7YIUUi/jxAfyBcfY0s6N69W5EtW6XywYpuqpAGZKkw4XWUj2+fQCd8sHmzP71heX3HDkWqdyu6s1zRTeXZO3gYDwGv+xqF5KONvgqWfChXX1zpy5pqaUeZn+whH3zX1BRT7Im8nOk3CiQMrfQlsoBPnwStpF1jFN1aIRV5OGwoyrC0btsWkwc+tGKg05+FhXtzNUvRnSMU2YKDkyZAgiERhlbkFgaab150ELT65qNl8Cu8juzySciBhDqjWwul6mFS8bb0JVEncr2gIP1ziXfRe8hJ6vVJ8GlY+QOt8DqfydKOodLuJqm4pu1d+hJdicz0SYGjH6Yv4Tt4nTJ8EtgwvtLJyR1DYrK3uKptyWH4lRKos7Q0pofalpj+V6CDwuCTiQcqRkubd0p5CQELeJ3+74w6U7WWOhkjvvYWdKaitWq8VLw1VY1dfr3rHYPp06WpU/0aun699GaFNH2GNNcjKwYWgnnOHP9OpPPn+lTWQheCHIYJk5eBDK1Di/zy47nOni0NHOgBTsujy5f71RXUAD4HHigNGRJcye4ThTNsmDRkrPSqFDloojQiu6wKSyv9gdKaOTPLiloec05anTRjhl8+noZnD5ytyFpJB0/KfsZg7dqY8vDlH5QHBvdBB/kbzTgjvvXRxuJiRcu2SgWTFJk7yc8xwMmD1+ONu2xQJh9t9BXKGBDgE6adL9Qqisya6ykumSkYN04aOTKblrV9ZsmScLRi4M+aJY3IdlC1VLtxY+zLmDGKzBojzW5LTtpfa9aEoxVD6YADpNGj0xbf7iZGKHnhnyARW3hNMbrTqRf4IAwPgA/Y+ubFWEI+++ajXRiTBx/s7+ijg+C9uDojTCAB89wxAWLJPzHQwNVXlzC2pk2Thg5NXm6qqxigOMFxtKZ6tN11dBB6D32SLK2VIoNpc8JNZCxyZ+LEhBsZfsJ3yNkwtCJj4fVRozJUknAbfDAmyZsqrVdsxiCxnRjLYWjFcdp/f2n8+FQ1Jr8ONjixYerMYG9FJqBHx0uJk4v7Ym9lqDN5I4k7hLS3kFnYo8nwYVjOTSMHn3suJTmdccNzvrkzSLAyDQFDwBAwBAwBQ8AQMAQMAUOguxEwx6C7e8DqNwQMAUPAEDAEDAFDwBAwBHoAAuYY9IBOMBIMAUPAEDAEDAFDwBAwBAyB7kbAHIPu7gGr3xAwBAwBQ8AQMAQMAUPAEOgBCJhj0AM6wUgwBAwBQ8AQMAQMAUPAEDAEuhsBcwy6uwesfkPAEDAEDAFDwBAwBAwBQ6AHIGCOQQ/oBCPBEDAEDAFDwBAwBAwBQ8AQ6G4EzDHo7h6w+g0BQ8AQMAQMAUPAEDAEDIEegIA5Bj2gE4wEQ8AQMAQMAUPAEDAEDAFDoLsRMMegu3vA6jcEDAFDwBAwBAwBQ8AQMAR6AALmGPSATjASDAFDwBAwBAwBQ8AQMAQMge5GIK/LCSgvlwoK/KolT22dInxu25N93oYGqapK2r5dyvNsanW1tG1b9nUFT+7cGaszTF7qhNb6cdK2iqDEzJ+7dkmlpVJRUeZnE5+orw/XzpqaGK27dyeWmP53RYXU2CjVSqoqkkrrpD3N6fMEd8PSWlkZK8G3T+C3urpw+OzerSh9uatQkdJaaUA0aEX6T/CprfWvEzrhdfigf//0dSTepS99saEM8KnZrciuXYpuq5WyDTNEoxI8Cz75+YnUpP8dtHHAgPTPJd5lXIYc05G6OkUqKqVtjYmlpv9NX9IXyCHftGdPuD6hjWVlEvl9En1JqhklldVJwz3aGnaMwHfQ2tTkQ6nEeAbbeJ5tliK7ihTdXi8VpJEnYXkd/qHe+DqzoTrQQb75KDvg9Ugkm5r2PpNMB+3Ik3YXSduq9j6X7FuggwoLk91NfY3xTF8iu3zSPoxLhw91wn9JUqSyUGpobm8zwOu0z1dO0saw/EO+HTtiui8JrSkvJevLxIcrChRB5G+rb3snjB6hBHiAen35jvrAKAyvZ5DN0aqBEjomUY9mg09bVPb+ylDn3gcTvgW6y3eM0P8p6ozWDJa2VSdU1H0/Pa3lDiA0UJY+RSGQ66KKMqC3exiiGKB0BMLDVwgwkDFcfJMzlkLmDWitH+5XNwoEpvN1uGgbxnaYdgaCztcxoC8xWnZHFakeIe2olBqyNELIF4ZWBjLGqG9e+hLFHgZXjEn6pGqootvL2wu0VHzleL3On1awCfinX7YWegsR9KEvNmQtL1cEZVCN813u5xgE4yuMY8B49nX0kTtBnamwT3E9WlsXMwp9ZA9lwXf0ha+RTt6wvE5fwreMa59EHtLuWkXKK6TtyY2tpEVimIXhH3iHepHTPol+DJRzkA9foHqEIjurpYI0jhh1hqGVcYmc9c1L28Lko120E0ffdzwn4fVIeaGTuRnpp07Gl6/MAx/Gsq8+oB/D9gl1YRiSP1naNUxqaJK2Jxhc0EpedIJPAhvy+fIAdZAXWn1lQUBrujorh0h5EWn7rratCUsreMJDzWkc7LY1xX4hc/aF19O1sXqUott3SInxIOQHei9d3mS0co0+CZOPNoYZI/B6ij6J1PYPR0uqtu3j9a53DKZPl6ZO9SN7/XrpjQppxgxprkdWGBXBPGeOf2QShpvrU1kLXZs3x+oKkxcGh9ahRX51Y7zOni0NHOgBTsujy5f71RXUAD4HHigNGRJcye4ThTNsmDRkrKKvSpozQRqRXVaFpRWFhXKdOTPLiloeKymJRaPgO98Ez4LPWkkHT5SyDYyvXRsTWL78Eyi6gw7yN5oRjr71gUdxsaJlWxUtmKTI3El+jgHKB1p9oy5BPl+HYsuWmCEQpp0v1Co6bao011NcEowYN04aOdKXe6QlS8L1Cc7oAQdII7IdVC2kbdwY+zJmtKIHjJZme5C8Zk04WoksQuvo0R6VKWZgkRdZGaQmKfqaYnSnUy/wQRgeAB+w9c2LIYh89s1HuzBAyOfrGKCD4L24OqPECoB5bgasMV7A1VeXYGRPmyYNHRr0SHafOD44lnG0ZpexZcZy1qyYPkmSKYrsHUybE24iY5E7Eycm3MjwE8MeORuGVmQsvD5qVIZKEm6DD84BeVOl9VKUGYPEdhYXh6MVoxedN358qhqTXwcbeDUMPhnsrcgEKTJ3QnvHAF7HpuiEOpM3UrHxHMbeQmalkgWZxuZzz6UkpzNueIYWO4MEK9MQMAQMAUPAEDAEDAFDwBAwBLobAXMMursHrH5DwBAwBAwBQ8AQMAQMAUOgByBgjkEP6AQjwRAwBAwBQ8AQMAQMAUPAEOhuBMwx6O4esPoNAUPAEDAEDAFDwBAwBAyBHoCAOQY9oBOMBEPAEDAEDAFDwBAwBAwBQ6C7ETDHoLt7wOo3BAwBQ8AQMAQMAUPAEDAEegAC5hj0gE4wEgwBQ8AQMAQMAUPAEDAEDIHuRsAcg+7uAavfEDAEDAFDwBAwBAwBQ8AQ6AEImGPQAzrBSDAEDAFDwBAwBAwBQ8AQMAS6GwFzDLq7B6x+Q8AQMAQMAUPAEDAEDAFDoAcgYI5BD+gEI8EQMAQMAUPAEDAEDAFDwBDobgTMMejuHrD6DQFDwBAwBAwBQ8AQMAQMgR6AQCQajUa7jI4bbpB27pQGDPCrsrFRyzcNU3NeoQ6dvCP7vM3NUkODlJ8vRSLZ5+PJujqpsNAvD083NkpNTVJBgX/e+npH6w8fOkY/PXtR9vnJB6b9Qvh51dXS4MHZ1xU8WVsbw7V//+BKdp979jg661WgR1ZM1WmzN2lIYUN2ecPSSp30fwi+E8PDNx+tqanRDo3Si2vH66yDNiivf5bDDH6Fb335Z194nb4sKsquD+KfamjQ1vICvbZ9is46aKMikSzbCKb0SdhxST5fXmdMgm2IMb1qY5F2RQfpqGll8a3P/J36GB++tFJyWF5HboXBB7kl6eoF83TmwRs1bWRV5vYFT9TUSIMGBb+y/wwrQ+B16KWdLak5GtGjK6fqiCmlGj+0Nrjc/nP3bmngwPbXM10JK9ehFV4PwXdOByEHfHUXtPIXV+e6HUP1yPIp+sL8FelbGpZ/0EF5eTF+T19D27vQyTgJI38y0Pr82xNUlNeoo6Ztb1sn9YEp9PokZAh9GYbWsLwOPvBQHK8nkvzft8erfz/puOlb294Ky+thaQ10kK/uguoM9tadr+6vDxy2tr0eBZ+w9laGOtuCGferxU7zHpdp+Ofq5w/S505aGVdJwldskAsvlIYMSbjROT+71jEoK4sNrM5pi5VqCBgChoAhYAgYAoaAIWAI5A4COLGjRvk73iER6FrHICSRls0QMAQMAUPAEDAEDAFDwBAwBDoXgRBrTzqXICvdEDAEDAFDwBAwBAyB3o7Ayy+/rDJWSkiqr69XE8tJkqTy8nJt3Lix3Z26ujpVVbVf1kdZy5cvb/d8d1zYsGFD6Gpp85o1a9LmX7p0aVIM0mbqoJvbtm3T66+/nlVp1dXVqqyszOrZnv6QOQY9vYeMPkPAEDAEDAFDwBDoFQiUlpbqxz/+sS699FK98cYbevDBB/XVr37V/e1m3X+S9Je//EX/+te/2twpLi7Whz70Id1+++1trvNjyZIl+tnPftbueuIFHJFa9gx0Qnr77bf1qU99Sj/60Y+8S6+pqdHPf/5zvfTSS1q8eHHSMnAIvvzlL7t7J598su6//37vevYlw/XXX68777zTOSXf+ta3tHVrwh4OyfXtqaeeKv4uueQSDRs2zLvK1157Tccee6yOPvpoLVy4sDX/3XffrbPPPtvh03qxi7547r7pIqqsGkPAEDAEDAFDwBAwBHoZApdffrkaGhr0+9//XoUtG8DPOussYfzjGAxJsoH0G9/4hprZvBuXpkyZopNOOinuyt6vRx55pP7617/uvZDi20MPPaTx48frmGOOSfFE+Mv777+/zj33XN17773eheDYMFuAwR2JRHTPPffoscce0xlnnOHKYqZk8+bNzikAL7D77Gc/6+rzrixEBmYKcAquu+46TZ482Tkw/P7KV77SWhozOcyW3HXXXe5af9+DWFpKOuKII3TZZZfpm9/8pg466KDW8g8//HDnjMybN6/1Wld9Mcegq5C2egwBQ8AQMAQMAUMgZxFYu3atbr75Zt1xxx2tTgGNHTdunL797W+roKBAO3bs0COPPCIMf5YaXXTRRdqyZYszMjG0WVaEQb9z504XrR4xYkQ7vFiedOuttzpjkqUuzz33nI466igXVf/Sl76kqVOn6tFHHxXfcUoGDx7sotmUu27dOn3mM5/R9OnTXfkPP/ywxowZoyeffFJFRUWqqKjQ9773PVfnFVdcofPOO89FtIngr1y5UqtWrdJHP/pRHXDAAe75gDicof/85z9uhqJfv36aP3++e379+vU6//zznQMQPAttGNzggWOA8XvjjTe2OgZ5eXk67rjjNHz4cJdl2rRpyk9xMtMLL7ygkpISt0yLmQXwev755/Xiiy+6Mk4//XRBD84G7d+0aZMmTpzonIwBKU4cZJYHGnCqoG/WrFmOvnjHAByvvPJK169cx7BPTMzYQB+zSI2NjVq2bJk+/vGPOxqg8bTTTnM44QSMHj1av/vd7/TDH/7QFfPPf/5T73nPexztieV29m9bStTZCFv5hoAhYAgYAoaAIZDzCGAYY+xiiAeJZTMsmcHwxih95pln9Mtf/tJFg0eNGiWi07/5zW/cshTWqX/ta1/ToYce6iLkLEVKTBibjz/+uH7xi19oz549Ltr+97//XeTFkGb5CenMM8905XzkIx/R2LFj9ac//ckZ6Bjsn/vc57R9+3YtWLBAP/3pT130HkeB51jShMFMWdB+yCGHuPJYGoXzgRH73e9+N5Est2zqqaee0nvf+143Y8LsCLMCRP5xGuITjhCzKRjdQYrfY4FRHjgFzKQQmQezxISThcPFTAM0g+Uf//hHzZgxwy3twcGBJpwCovKTJk3Spz/9aWeAs4QnVWIZF+XFOw6JS4lmzpzpZktwBHHwki3tgj5mdu677z43GzBw4EBH79ChQ52zdfXVV7tZJByVD37wg25mBB6hHatXr9bBBx+cisROvW4zBp0KrxVuCBgChoAhYAgYAn0BAaLCiQlHgWjw17/+dRflZxnQhAkT9O53v9tFt3me6DkzBBixRP8x9DGaiZonJpasYMRjtFI2xi4OBuXxydr9xMQymBUrVuiGG25wkXUi9GxgZokRRukpp5yi/fbbz10jCv7AAw844xrnYlDLO0qgadeuXa6cZBuiWV/PciCi7F/84hcFneyRwJFJFe2Pp5PZimQJJwL8mKVITDhg0PSDH/zAOUoY9KzTx+ngFV3HH3+8c8BeeeUVF63HASOxXyHZkq7E8uN/g3V8wsjHcOcP7D7xiU/E33bfcbSYWWHGAmePGaVXX33VOQn0N7NDgdP0sY99TD/5yU/cEibKZs9CvGPSrvBOvGAzBp0IrhVtCBgChoAhYAgYAn0DAZatYJDGR5eJfmOw4zQEew4wFJOlIF/w3lny+qRUBjjGM8tx2ATNkhei7zgnJByQIHKP8ctMBBtfFy1a1Dr7gPHKNZbPsFE2WWK5FHlvueUWNzPBCT04B8lomj17tjPog30VbJBmz0JiwnDGWWLJDUZy8HzwHDji9BBdxwlgZoFn2LSMI/bnP/9Z55xzjlvexKxBkB9a02E7d+5clyfYuE37caBSJZYa4QSkSqn6G6cp6GtoYoaDJUTPPvusTjzxxFTFdfr15NzZ6dVaBYaAIWAIGAKGgCFgCOQOAhi3RH5ZLx9/dGVgYGZqKdFnlgSxFp1EBDyIKGfKy/3ESD5GJ/kxdFnmxKZf0tNPP+3WvScrk3XtGOTx0WqORr3mmmuc8c16eQxa/lgqEyTKZiaDPQvcIzKOwc5a/8TE0h/qwFiH5jfffNPte6Bs9h+QWFLzt7/9zRncLGmifJyV+MR+B5wpTm5i4y5LrMD9qquucsusoBvHgv0c7I+46aab3KwIWLz11ltuidcTTzwRX6T7zuwLS5mYrcCZoBz2atCPwdIk+oblWCTofuc739muHN8L7P2g/9/1rnf5Zu3Q580x6FA4rTBDwBAwBAwBQ8AQ6KsIsGafJTgcYclafH5feOGFbpMxMwcYzhilbIQlEeVmAzFLfbjPMpwLLrjAPY+BzebVeAOcmQeex6i+9tprndHKBl+W0LAMifsYviSi3KytZ8kNxi4GJ3VglLPkhyVDGOUsAQoSswaf//zn9Y53vCO45PIw68DGWYxjDGVOCmJ2gH0QlMEeAWYiaAdr/Fk6g2HPKU2Jx7RixBNlJ/9tt93m9giwfwHjnUg/eyfYE8GyqA9/+MNubwMnNLHkKj5hRH/nO99xm41ZisT+AWZEWO9P+9jMy54HZih+9atfuVOQcN7Af86cOfrDH/6giy++2DkA8eWyB4BN4Tgc7A/ASXr/+9/vcPv+97/vNmjjZDCTQf+CI0t/EhPOzb///W/nHHG8K33JciLwwmGi39jUHSQ2Tn/hC1/QCSecEFzqlk9783G3wG6VGgKGgCFgCBgChkAuI4AByDIdDFOfRBR85MiRSZfh+JTDbAHGc3CyEVFuoueZUrBXIn65DcY6kXvKIlLOZ/z9oEzafOCBBwY/nREdbCRuvdjyBcOYiDyOBAl6ORWJU5J8EqcSsRQnODKUMrmWzJGgHWBLoj04Vxj1yfYc0A+0NdiATbnQR3vAiKVV1MlG5I5KYMDSo6AtHVWuTznmGPigZc8aAoaAIWAIGAKGgCFgCPR6BHCUMMDT7R/o9Y0M0QBzDEKAZlkMAUPAEDAEDAFDwBAwBAyBXEPA9hjkWo9aewwBQ8AQMAQMAUPAEDAEDIEQCJhjEAI0y2IIGAKGgCFgCBgChoAhYAjkGgL/H5puyycPb0KAAAAAAElFTkSuQmCC;" parent="1" vertex="1">
          <mxGeometry x="206.63" y="78" width="396.75" height="122" as="geometry" />
        </mxCell>
        <mxCell id="eN-WV_VvRqyreEzH0uXg-64" style="edgeStyle=none;rounded=0;orthogonalLoop=1;jettySize=auto;html=1;exitX=0.5;exitY=1;exitDx=0;exitDy=0;endArrow=classic;endFill=1;fontSize=9;entryX=0.5;entryY=0;entryDx=0;entryDy=0;" parent="1" source="eN-WV_VvRqyreEzH0uXg-3" target="eN-WV_VvRqyreEzH0uXg-10" edge="1">
          <mxGeometry relative="1" as="geometry">
            <mxPoint x="302" y="331" as="targetPoint" />
          </mxGeometry>
        </mxCell>
        <mxCell id="eN-WV_VvRqyreEzH0uXg-3" value="beat" style="rounded=1;whiteSpace=wrap;html=1;fillColor=#d5e8d4;strokeColor=#82b366;" parent="1" vertex="1">
          <mxGeometry x="280" y="285" width="50" height="40" as="geometry" />
        </mxCell>
        <mxCell id="eN-WV_VvRqyreEzH0uXg-62" style="edgeStyle=none;rounded=0;orthogonalLoop=1;jettySize=auto;html=1;exitX=0.5;exitY=1;exitDx=0;exitDy=0;entryX=0.5;entryY=0;entryDx=0;entryDy=0;endArrow=classic;endFill=1;fontSize=9;" parent="1" source="eN-WV_VvRqyreEzH0uXg-4" target="eN-WV_VvRqyreEzH0uXg-11" edge="1">
          <mxGeometry relative="1" as="geometry" />
        </mxCell>
        <mxCell id="eN-WV_VvRqyreEzH0uXg-4" value="beat" style="rounded=1;whiteSpace=wrap;html=1;fillColor=#d5e8d4;strokeColor=#82b366;" parent="1" vertex="1">
          <mxGeometry x="560" y="285" width="50" height="40" as="geometry" />
        </mxCell>
        <mxCell id="eN-WV_VvRqyreEzH0uXg-63" style="edgeStyle=none;rounded=0;orthogonalLoop=1;jettySize=auto;html=1;exitX=0.5;exitY=1;exitDx=0;exitDy=0;entryX=0.5;entryY=0;entryDx=0;entryDy=0;endArrow=classic;endFill=1;fontSize=9;" parent="1" source="eN-WV_VvRqyreEzH0uXg-6" target="eN-WV_VvRqyreEzH0uXg-12" edge="1">
          <mxGeometry relative="1" as="geometry" />
        </mxCell>
        <mxCell id="eN-WV_VvRqyreEzH0uXg-6" value="beat" style="rounded=1;whiteSpace=wrap;html=1;fillColor=#d5e8d4;strokeColor=#82b366;" parent="1" vertex="1">
          <mxGeometry x="480" y="285" width="50" height="40" as="geometry" />
        </mxCell>
        <mxCell id="eN-WV_VvRqyreEzH0uXg-58" style="edgeStyle=none;rounded=0;orthogonalLoop=1;jettySize=auto;html=1;exitX=0.5;exitY=1;exitDx=0;exitDy=0;endArrow=classic;endFill=1;fontSize=9;" parent="1" source="eN-WV_VvRqyreEzH0uXg-9" target="eN-WV_VvRqyreEzH0uXg-13" edge="1">
          <mxGeometry relative="1" as="geometry" />
        </mxCell>
        <mxCell id="eN-WV_VvRqyreEzH0uXg-9" value="CNN" style="rounded=1;whiteSpace=wrap;html=1;fillColor=#dae8fc;strokeColor=#6c8ebf;glass=0;shadow=0;sketch=0;" parent="1" vertex="1">
          <mxGeometry x="210" y="344" width="50" height="36" as="geometry" />
        </mxCell>
        <mxCell id="eN-WV_VvRqyreEzH0uXg-59" style="edgeStyle=none;rounded=0;orthogonalLoop=1;jettySize=auto;html=1;exitX=0.5;exitY=1;exitDx=0;exitDy=0;endArrow=classic;endFill=1;fontSize=9;entryX=0.5;entryY=0;entryDx=0;entryDy=0;" parent="1" source="eN-WV_VvRqyreEzH0uXg-10" target="eN-WV_VvRqyreEzH0uXg-26" edge="1">
          <mxGeometry relative="1" as="geometry">
            <mxPoint x="305" y="460" as="targetPoint" />
          </mxGeometry>
        </mxCell>
        <mxCell id="eN-WV_VvRqyreEzH0uXg-10" value="CNN" style="rounded=1;whiteSpace=wrap;html=1;fillColor=#dae8fc;strokeColor=#6c8ebf;glass=0;shadow=0;sketch=0;" parent="1" vertex="1">
          <mxGeometry x="280" y="344" width="50" height="36" as="geometry" />
        </mxCell>
        <mxCell id="eN-WV_VvRqyreEzH0uXg-61" style="edgeStyle=none;rounded=0;orthogonalLoop=1;jettySize=auto;html=1;exitX=0.5;exitY=1;exitDx=0;exitDy=0;entryX=0.5;entryY=0;entryDx=0;entryDy=0;endArrow=classic;endFill=1;fontSize=9;" parent="1" source="eN-WV_VvRqyreEzH0uXg-11" target="eN-WV_VvRqyreEzH0uXg-37" edge="1">
          <mxGeometry relative="1" as="geometry" />
        </mxCell>
        <mxCell id="eN-WV_VvRqyreEzH0uXg-11" value="CNN" style="rounded=1;whiteSpace=wrap;html=1;fillColor=#dae8fc;strokeColor=#6c8ebf;glass=0;shadow=0;sketch=0;" parent="1" vertex="1">
          <mxGeometry x="560" y="344" width="50" height="36" as="geometry" />
        </mxCell>
        <mxCell id="eN-WV_VvRqyreEzH0uXg-60" style="edgeStyle=none;rounded=0;orthogonalLoop=1;jettySize=auto;html=1;exitX=0.5;exitY=1;exitDx=0;exitDy=0;endArrow=classic;endFill=1;fontSize=9;" parent="1" source="eN-WV_VvRqyreEzH0uXg-12" target="eN-WV_VvRqyreEzH0uXg-34" edge="1">
          <mxGeometry relative="1" as="geometry" />
        </mxCell>
        <mxCell id="eN-WV_VvRqyreEzH0uXg-12" value="CNN" style="rounded=1;whiteSpace=wrap;html=1;fillColor=#dae8fc;strokeColor=#6c8ebf;glass=0;shadow=0;sketch=0;" parent="1" vertex="1">
          <mxGeometry x="480" y="344" width="50" height="36" as="geometry" />
        </mxCell>
        <mxCell id="eN-WV_VvRqyreEzH0uXg-13" value="" style="rounded=1;whiteSpace=wrap;html=1;fillColor=#fff2cc;strokeColor=#d6b656;dashed=1;" parent="1" vertex="1">
          <mxGeometry x="210" y="449" width="50" height="86" as="geometry" />
        </mxCell>
        <mxCell id="eN-WV_VvRqyreEzH0uXg-70" style="edgeStyle=none;rounded=0;orthogonalLoop=1;jettySize=auto;html=1;exitX=0.5;exitY=1;exitDx=0;exitDy=0;entryX=0.5;entryY=0;entryDx=0;entryDy=0;entryPerimeter=0;endArrow=none;endFill=0;fontSize=9;startArrow=none;startFill=0;" parent="1" source="eN-WV_VvRqyreEzH0uXg-21" target="eN-WV_VvRqyreEzH0uXg-66" edge="1">
          <mxGeometry relative="1" as="geometry" />
        </mxCell>
        <mxCell id="eN-WV_VvRqyreEzH0uXg-21" value="&lt;font style=&quot;font-size: 10px&quot;&gt;LSTM&lt;/font&gt;" style="rounded=0;whiteSpace=wrap;html=1;shadow=0;glass=0;sketch=0;fillColor=#ffe6cc;strokeColor=#d79b00;fontSize=9;" parent="1" vertex="1">
          <mxGeometry x="217.5" y="457" width="32.5" height="20" as="geometry" />
        </mxCell>
        <mxCell id="eN-WV_VvRqyreEzH0uXg-22" value="&lt;font style=&quot;font-size: 10px&quot;&gt;LSTM&lt;/font&gt;" style="rounded=0;whiteSpace=wrap;html=1;shadow=0;glass=0;sketch=0;fillColor=#ffe6cc;strokeColor=#d79b00;fontSize=9;" parent="1" vertex="1">
          <mxGeometry x="217.5" y="507" width="32.5" height="20" as="geometry" />
        </mxCell>
        <mxCell id="eN-WV_VvRqyreEzH0uXg-24" value="&lt;font style=&quot;font-size: 10px&quot;&gt;LSTM&lt;/font&gt;" style="rounded=0;whiteSpace=wrap;html=1;shadow=0;glass=0;sketch=0;fillColor=#ffe6cc;strokeColor=#d79b00;fontSize=9;" parent="1" vertex="1">
          <mxGeometry x="287.5" y="455" width="32.5" height="20" as="geometry" />
        </mxCell>
        <mxCell id="eN-WV_VvRqyreEzH0uXg-25" value="&lt;font style=&quot;font-size: 10px&quot;&gt;LSTM&lt;/font&gt;" style="rounded=0;whiteSpace=wrap;html=1;shadow=0;glass=0;sketch=0;fillColor=#ffe6cc;strokeColor=#d79b00;fontSize=9;" parent="1" vertex="1">
          <mxGeometry x="287.5" y="505" width="32.5" height="20" as="geometry" />
        </mxCell>
        <mxCell id="eN-WV_VvRqyreEzH0uXg-26" value="" style="rounded=1;whiteSpace=wrap;html=1;fillColor=#fff2cc;strokeColor=#d6b656;dashed=1;" parent="1" vertex="1">
          <mxGeometry x="280" y="449" width="50" height="86" as="geometry" />
        </mxCell>
        <mxCell id="eN-WV_VvRqyreEzH0uXg-32" value="&lt;font style=&quot;font-size: 10px&quot;&gt;LSTM&lt;/font&gt;" style="rounded=0;whiteSpace=wrap;html=1;shadow=0;glass=0;sketch=0;fillColor=#ffe6cc;strokeColor=#d79b00;fontSize=9;" parent="1" vertex="1">
          <mxGeometry x="487.5" y="455" width="32.5" height="20" as="geometry" />
        </mxCell>
        <mxCell id="eN-WV_VvRqyreEzH0uXg-33" value="&lt;font style=&quot;font-size: 10px&quot;&gt;LSTM&lt;/font&gt;" style="rounded=0;whiteSpace=wrap;html=1;shadow=0;glass=0;sketch=0;fillColor=#ffe6cc;strokeColor=#d79b00;fontSize=9;" parent="1" vertex="1">
          <mxGeometry x="487.5" y="505" width="32.5" height="20" as="geometry" />
        </mxCell>
        <mxCell id="eN-WV_VvRqyreEzH0uXg-34" value="" style="rounded=1;whiteSpace=wrap;html=1;fillColor=#fff2cc;strokeColor=#d6b656;dashed=1;" parent="1" vertex="1">
          <mxGeometry x="480" y="449" width="50" height="86" as="geometry" />
        </mxCell>
        <mxCell id="eN-WV_VvRqyreEzH0uXg-35" value="&lt;font style=&quot;font-size: 10px&quot;&gt;LSTM&lt;/font&gt;" style="rounded=0;whiteSpace=wrap;html=1;shadow=0;glass=0;sketch=0;fillColor=#ffe6cc;strokeColor=#d79b00;fontSize=9;" parent="1" vertex="1">
          <mxGeometry x="567.5" y="455" width="32.5" height="20" as="geometry" />
        </mxCell>
        <mxCell id="eN-WV_VvRqyreEzH0uXg-36" value="&lt;font style=&quot;font-size: 10px&quot;&gt;LSTM&lt;/font&gt;" style="rounded=0;whiteSpace=wrap;html=1;shadow=0;glass=0;sketch=0;fillColor=#ffe6cc;strokeColor=#d79b00;fontSize=9;" parent="1" vertex="1">
          <mxGeometry x="567.5" y="505" width="32.5" height="20" as="geometry" />
        </mxCell>
        <mxCell id="eN-WV_VvRqyreEzH0uXg-37" value="" style="rounded=1;whiteSpace=wrap;html=1;fillColor=#fff2cc;strokeColor=#d6b656;dashed=1;" parent="1" vertex="1">
          <mxGeometry x="560" y="449" width="50" height="86" as="geometry" />
        </mxCell>
        <mxCell id="eN-WV_VvRqyreEzH0uXg-50" style="edgeStyle=none;rounded=0;orthogonalLoop=1;jettySize=auto;html=1;exitX=0;exitY=0.5;exitDx=0;exitDy=0;entryX=1;entryY=0.5;entryDx=0;entryDy=0;fontSize=9;" parent="1" source="eN-WV_VvRqyreEzH0uXg-38" target="eN-WV_VvRqyreEzH0uXg-21" edge="1">
          <mxGeometry relative="1" as="geometry" />
        </mxCell>
        <mxCell id="eN-WV_VvRqyreEzH0uXg-72" style="edgeStyle=none;rounded=0;orthogonalLoop=1;jettySize=auto;html=1;exitX=0.5;exitY=1;exitDx=0;exitDy=0;entryX=0.5;entryY=0;entryDx=0;entryDy=0;entryPerimeter=0;startArrow=none;startFill=0;endArrow=none;endFill=0;fontSize=9;" parent="1" source="eN-WV_VvRqyreEzH0uXg-38" target="eN-WV_VvRqyreEzH0uXg-67" edge="1">
          <mxGeometry relative="1" as="geometry" />
        </mxCell>
        <mxCell id="eN-WV_VvRqyreEzH0uXg-38" value="&lt;font style=&quot;font-size: 10px&quot;&gt;LSTM&lt;/font&gt;" style="rounded=0;whiteSpace=wrap;html=1;shadow=0;glass=0;sketch=0;fillColor=#ffe6cc;strokeColor=#d79b00;fontSize=9;" parent="1" vertex="1">
          <mxGeometry x="288.75" y="457" width="32.5" height="20" as="geometry" />
        </mxCell>
        <mxCell id="eN-WV_VvRqyreEzH0uXg-39" value="&lt;font style=&quot;font-size: 10px&quot;&gt;LSTM&lt;/font&gt;" style="rounded=0;whiteSpace=wrap;html=1;shadow=0;glass=0;sketch=0;fillColor=#ffe6cc;strokeColor=#d79b00;fontSize=9;" parent="1" vertex="1">
          <mxGeometry x="288.75" y="507" width="32.5" height="20" as="geometry" />
        </mxCell>
        <mxCell id="eN-WV_VvRqyreEzH0uXg-52" style="edgeStyle=none;rounded=0;orthogonalLoop=1;jettySize=auto;html=1;exitX=0;exitY=0.5;exitDx=0;exitDy=0;entryX=1;entryY=0.5;entryDx=0;entryDy=0;endArrow=classic;endFill=1;fontSize=9;" parent="1" source="eN-WV_VvRqyreEzH0uXg-40" target="eN-WV_VvRqyreEzH0uXg-51" edge="1">
          <mxGeometry relative="1" as="geometry" />
        </mxCell>
        <mxCell id="eN-WV_VvRqyreEzH0uXg-74" style="edgeStyle=none;rounded=0;orthogonalLoop=1;jettySize=auto;html=1;exitX=0.5;exitY=1;exitDx=0;exitDy=0;entryX=0.5;entryY=0;entryDx=0;entryDy=0;entryPerimeter=0;startArrow=none;startFill=0;endArrow=none;endFill=0;fontSize=9;" parent="1" source="eN-WV_VvRqyreEzH0uXg-40" target="eN-WV_VvRqyreEzH0uXg-68" edge="1">
          <mxGeometry relative="1" as="geometry" />
        </mxCell>
        <mxCell id="eN-WV_VvRqyreEzH0uXg-40" value="&lt;font style=&quot;font-size: 10px&quot;&gt;LSTM&lt;/font&gt;" style="rounded=0;whiteSpace=wrap;html=1;shadow=0;glass=0;sketch=0;fillColor=#ffe6cc;strokeColor=#d79b00;fontSize=9;" parent="1" vertex="1">
          <mxGeometry x="487.5" y="457" width="32.5" height="20" as="geometry" />
        </mxCell>
        <mxCell id="eN-WV_VvRqyreEzH0uXg-48" style="edgeStyle=none;rounded=0;orthogonalLoop=1;jettySize=auto;html=1;exitX=1;exitY=0.5;exitDx=0;exitDy=0;entryX=0;entryY=0.5;entryDx=0;entryDy=0;fontSize=9;" parent="1" source="eN-WV_VvRqyreEzH0uXg-41" target="eN-WV_VvRqyreEzH0uXg-43" edge="1">
          <mxGeometry relative="1" as="geometry" />
        </mxCell>
        <mxCell id="eN-WV_VvRqyreEzH0uXg-57" style="edgeStyle=none;rounded=0;orthogonalLoop=1;jettySize=auto;html=1;exitX=0;exitY=0.5;exitDx=0;exitDy=0;entryX=1;entryY=0.5;entryDx=0;entryDy=0;endArrow=classic;endFill=1;fontSize=9;" parent="1" source="eN-WV_VvRqyreEzH0uXg-41" target="eN-WV_VvRqyreEzH0uXg-54" edge="1">
          <mxGeometry relative="1" as="geometry" />
        </mxCell>
        <mxCell id="eN-WV_VvRqyreEzH0uXg-41" value="&lt;font style=&quot;font-size: 10px&quot;&gt;LSTM&lt;/font&gt;" style="rounded=0;whiteSpace=wrap;html=1;shadow=0;glass=0;sketch=0;fillColor=#ffe6cc;strokeColor=#d79b00;fontSize=9;" parent="1" vertex="1">
          <mxGeometry x="487.5" y="507" width="32.5" height="20" as="geometry" />
        </mxCell>
        <mxCell id="eN-WV_VvRqyreEzH0uXg-49" style="edgeStyle=none;rounded=0;orthogonalLoop=1;jettySize=auto;html=1;exitX=0;exitY=0.5;exitDx=0;exitDy=0;entryX=1;entryY=0.5;entryDx=0;entryDy=0;fontSize=9;" parent="1" source="eN-WV_VvRqyreEzH0uXg-42" target="eN-WV_VvRqyreEzH0uXg-40" edge="1">
          <mxGeometry relative="1" as="geometry" />
        </mxCell>
        <mxCell id="eN-WV_VvRqyreEzH0uXg-76" style="edgeStyle=none;rounded=0;orthogonalLoop=1;jettySize=auto;html=1;exitX=0.5;exitY=1;exitDx=0;exitDy=0;entryX=0.5;entryY=0;entryDx=0;entryDy=0;entryPerimeter=0;startArrow=none;startFill=0;endArrow=none;endFill=0;fontSize=9;" parent="1" source="eN-WV_VvRqyreEzH0uXg-42" target="eN-WV_VvRqyreEzH0uXg-69" edge="1">
          <mxGeometry relative="1" as="geometry" />
        </mxCell>
        <mxCell id="eN-WV_VvRqyreEzH0uXg-42" value="&lt;font style=&quot;font-size: 10px&quot;&gt;LSTM&lt;/font&gt;" style="rounded=0;whiteSpace=wrap;html=1;shadow=0;glass=0;sketch=0;fillColor=#ffe6cc;strokeColor=#d79b00;fontSize=9;" parent="1" vertex="1">
          <mxGeometry x="568.75" y="457" width="32.5" height="20" as="geometry" />
        </mxCell>
        <mxCell id="eN-WV_VvRqyreEzH0uXg-43" value="&lt;font style=&quot;font-size: 10px&quot;&gt;LSTM&lt;/font&gt;" style="rounded=0;whiteSpace=wrap;html=1;shadow=0;glass=0;sketch=0;fillColor=#ffe6cc;strokeColor=#d79b00;fontSize=9;" parent="1" vertex="1">
          <mxGeometry x="568.75" y="507" width="32.5" height="20" as="geometry" />
        </mxCell>
        <mxCell id="eN-WV_VvRqyreEzH0uXg-47" style="edgeStyle=none;rounded=0;orthogonalLoop=1;jettySize=auto;html=1;exitX=1;exitY=0.5;exitDx=0;exitDy=0;entryX=0;entryY=0.5;entryDx=0;entryDy=0;fontSize=9;" parent="1" source="eN-WV_VvRqyreEzH0uXg-22" target="eN-WV_VvRqyreEzH0uXg-39" edge="1">
          <mxGeometry relative="1" as="geometry" />
        </mxCell>
        <mxCell id="eN-WV_VvRqyreEzH0uXg-53" style="edgeStyle=none;rounded=0;orthogonalLoop=1;jettySize=auto;html=1;exitX=0;exitY=0.5;exitDx=0;exitDy=0;entryX=1;entryY=0.5;entryDx=0;entryDy=0;endArrow=classic;endFill=1;fontSize=9;" parent="1" source="eN-WV_VvRqyreEzH0uXg-51" target="eN-WV_VvRqyreEzH0uXg-38" edge="1">
          <mxGeometry relative="1" as="geometry" />
        </mxCell>
        <mxCell id="eN-WV_VvRqyreEzH0uXg-51" value="..." style="rounded=0;whiteSpace=wrap;html=1;shadow=0;glass=0;dashed=1;sketch=0;fontSize=9;opacity=0;" parent="1" vertex="1">
          <mxGeometry x="390" y="453" width="30" height="28" as="geometry" />
        </mxCell>
        <mxCell id="eN-WV_VvRqyreEzH0uXg-56" style="edgeStyle=none;rounded=0;orthogonalLoop=1;jettySize=auto;html=1;exitX=0;exitY=0.5;exitDx=0;exitDy=0;entryX=1;entryY=0.5;entryDx=0;entryDy=0;endArrow=classic;endFill=1;fontSize=9;" parent="1" source="eN-WV_VvRqyreEzH0uXg-54" target="eN-WV_VvRqyreEzH0uXg-39" edge="1">
          <mxGeometry relative="1" as="geometry" />
        </mxCell>
        <mxCell id="eN-WV_VvRqyreEzH0uXg-54" value="..." style="rounded=0;whiteSpace=wrap;html=1;shadow=0;glass=0;dashed=1;sketch=0;fontSize=9;opacity=0;" parent="1" vertex="1">
          <mxGeometry x="390" y="504" width="30" height="28" as="geometry" />
        </mxCell>
        <mxCell id="eN-WV_VvRqyreEzH0uXg-71" style="edgeStyle=none;rounded=0;orthogonalLoop=1;jettySize=auto;html=1;exitX=0.5;exitY=1;exitDx=0;exitDy=0;exitPerimeter=0;startArrow=none;startFill=0;endArrow=none;endFill=0;fontSize=9;" parent="1" source="eN-WV_VvRqyreEzH0uXg-66" target="eN-WV_VvRqyreEzH0uXg-22" edge="1">
          <mxGeometry relative="1" as="geometry" />
        </mxCell>
        <mxCell id="eN-WV_VvRqyreEzH0uXg-66" value="" style="verticalLabelPosition=bottom;verticalAlign=top;html=1;shape=mxgraph.flowchart.or;shadow=0;glass=0;sketch=0;fontSize=9;" parent="1" vertex="1">
          <mxGeometry x="228.75" y="487" width="10" height="10" as="geometry" />
        </mxCell>
        <mxCell id="eN-WV_VvRqyreEzH0uXg-73" style="edgeStyle=none;rounded=0;orthogonalLoop=1;jettySize=auto;html=1;exitX=0.5;exitY=1;exitDx=0;exitDy=0;exitPerimeter=0;entryX=0.5;entryY=0;entryDx=0;entryDy=0;startArrow=none;startFill=0;endArrow=none;endFill=0;fontSize=9;" parent="1" source="eN-WV_VvRqyreEzH0uXg-67" target="eN-WV_VvRqyreEzH0uXg-39" edge="1">
          <mxGeometry relative="1" as="geometry" />
        </mxCell>
        <mxCell id="eN-WV_VvRqyreEzH0uXg-67" value="" style="verticalLabelPosition=bottom;verticalAlign=top;html=1;shape=mxgraph.flowchart.or;shadow=0;glass=0;sketch=0;fontSize=9;" parent="1" vertex="1">
          <mxGeometry x="300" y="487" width="10" height="10" as="geometry" />
        </mxCell>
        <mxCell id="eN-WV_VvRqyreEzH0uXg-75" style="edgeStyle=none;rounded=0;orthogonalLoop=1;jettySize=auto;html=1;exitX=0.5;exitY=1;exitDx=0;exitDy=0;exitPerimeter=0;entryX=0.497;entryY=-0.1;entryDx=0;entryDy=0;entryPerimeter=0;startArrow=none;startFill=0;endArrow=none;endFill=0;fontSize=9;" parent="1" source="eN-WV_VvRqyreEzH0uXg-68" target="eN-WV_VvRqyreEzH0uXg-41" edge="1">
          <mxGeometry relative="1" as="geometry" />
        </mxCell>
        <mxCell id="eN-WV_VvRqyreEzH0uXg-68" value="" style="verticalLabelPosition=bottom;verticalAlign=top;html=1;shape=mxgraph.flowchart.or;shadow=0;glass=0;sketch=0;fontSize=9;" parent="1" vertex="1">
          <mxGeometry x="498.75" y="487" width="10" height="10" as="geometry" />
        </mxCell>
        <mxCell id="eN-WV_VvRqyreEzH0uXg-77" style="edgeStyle=none;rounded=0;orthogonalLoop=1;jettySize=auto;html=1;exitX=0.5;exitY=1;exitDx=0;exitDy=0;exitPerimeter=0;entryX=0.5;entryY=0;entryDx=0;entryDy=0;startArrow=none;startFill=0;endArrow=none;endFill=0;fontSize=9;" parent="1" source="eN-WV_VvRqyreEzH0uXg-69" target="eN-WV_VvRqyreEzH0uXg-43" edge="1">
          <mxGeometry relative="1" as="geometry" />
        </mxCell>
        <mxCell id="eN-WV_VvRqyreEzH0uXg-69" value="" style="verticalLabelPosition=bottom;verticalAlign=top;html=1;shape=mxgraph.flowchart.or;shadow=0;glass=0;sketch=0;fontSize=9;" parent="1" vertex="1">
          <mxGeometry x="580" y="487" width="10" height="10" as="geometry" />
        </mxCell>
        <mxCell id="eN-WV_VvRqyreEzH0uXg-81" value="256x1" style="text;html=1;strokeColor=none;fillColor=none;align=center;verticalAlign=middle;whiteSpace=wrap;rounded=0;shadow=0;glass=0;dashed=1;sketch=0;fontSize=9;" parent="1" vertex="1">
          <mxGeometry x="120" y="295" width="70" height="20" as="geometry" />
        </mxCell>
        <mxCell id="eN-WV_VvRqyreEzH0uXg-82" value="CNNs" style="text;html=1;strokeColor=none;fillColor=none;align=center;verticalAlign=middle;whiteSpace=wrap;rounded=0;shadow=0;glass=0;dashed=1;sketch=0;fontSize=9;" parent="1" vertex="1">
          <mxGeometry x="140" y="355" width="40" height="20" as="geometry" />
        </mxCell>
        <mxCell id="eN-WV_VvRqyreEzH0uXg-83" value="Bi-LSTM" style="text;html=1;strokeColor=none;fillColor=none;align=center;verticalAlign=middle;whiteSpace=wrap;rounded=0;shadow=0;glass=0;dashed=1;sketch=0;fontSize=9;" parent="1" vertex="1">
          <mxGeometry x="130" y="475" width="50" height="20" as="geometry" />
        </mxCell>
        <mxCell id="eN-WV_VvRqyreEzH0uXg-85" value="" style="verticalLabelPosition=bottom;verticalAlign=top;html=1;shape=mxgraph.flowchart.summing_function;shadow=0;glass=0;sketch=0;strokeColor=#6c8ebf;fontSize=9;fillColor=#dae8fc;" parent="1" vertex="1">
          <mxGeometry x="230" y="410" width="10" height="10" as="geometry" />
        </mxCell>
        <mxCell id="eN-WV_VvRqyreEzH0uXg-87" value="" style="verticalLabelPosition=bottom;verticalAlign=top;html=1;shape=mxgraph.flowchart.summing_function;shadow=0;glass=0;sketch=0;strokeColor=#6c8ebf;fontSize=9;fillColor=#dae8fc;" parent="1" vertex="1">
          <mxGeometry x="300" y="410" width="10" height="10" as="geometry" />
        </mxCell>
        <mxCell id="eN-WV_VvRqyreEzH0uXg-88" value="" style="verticalLabelPosition=bottom;verticalAlign=top;html=1;shape=mxgraph.flowchart.summing_function;shadow=0;glass=0;sketch=0;strokeColor=#6c8ebf;fontSize=9;fillColor=#dae8fc;" parent="1" vertex="1">
          <mxGeometry x="500" y="410" width="10" height="10" as="geometry" />
        </mxCell>
        <mxCell id="eN-WV_VvRqyreEzH0uXg-91" value="" style="verticalLabelPosition=bottom;verticalAlign=top;html=1;shape=mxgraph.flowchart.summing_function;shadow=0;glass=0;sketch=0;strokeColor=#6c8ebf;fontSize=9;fillColor=#dae8fc;" parent="1" vertex="1">
          <mxGeometry x="580" y="410" width="10" height="10" as="geometry" />
        </mxCell>
        <mxCell id="eN-WV_VvRqyreEzH0uXg-93" value="Att1" style="text;html=1;strokeColor=none;fillColor=none;align=center;verticalAlign=middle;whiteSpace=wrap;rounded=0;shadow=0;glass=0;dashed=1;sketch=0;fontSize=9;" parent="1" vertex="1">
          <mxGeometry x="140" y="405" width="40" height="20" as="geometry" />
        </mxCell>
        <mxCell id="eN-WV_VvRqyreEzH0uXg-119" style="edgeStyle=none;rounded=0;orthogonalLoop=1;jettySize=auto;html=1;exitX=0.5;exitY=1;exitDx=0;exitDy=0;startArrow=none;startFill=0;endArrow=classic;endFill=1;fontSize=9;" parent="1" source="eN-WV_VvRqyreEzH0uXg-95" edge="1">
          <mxGeometry relative="1" as="geometry">
            <mxPoint x="405.2857142857142" y="640" as="targetPoint" />
          </mxGeometry>
        </mxCell>
        <mxCell id="eN-WV_VvRqyreEzH0uXg-95" value="" style="rounded=1;whiteSpace=wrap;html=1;fillColor=#f8cecc;strokeColor=#b85450;" parent="1" vertex="1">
          <mxGeometry x="190" y="604" width="430" height="16" as="geometry" />
        </mxCell>
        <mxCell id="eN-WV_VvRqyreEzH0uXg-96" value="" style="rounded=1;whiteSpace=wrap;html=1;shadow=0;glass=0;sketch=0;fontSize=9;dashed=1;strokeColor=#BABABA;" parent="1" vertex="1">
          <mxGeometry x="190" y="563" width="430" height="15" as="geometry" />
        </mxCell>
        <mxCell id="eN-WV_VvRqyreEzH0uXg-113" style="edgeStyle=none;rounded=0;orthogonalLoop=1;jettySize=auto;html=1;entryX=0.5;entryY=0;entryDx=0;entryDy=0;startArrow=none;startFill=0;endArrow=classic;endFill=1;fontSize=9;" parent="1" source="eN-WV_VvRqyreEzH0uXg-98" target="eN-WV_VvRqyreEzH0uXg-95" edge="1">
          <mxGeometry relative="1" as="geometry" />
        </mxCell>
        <mxCell id="eN-WV_VvRqyreEzH0uXg-98" value="" style="verticalLabelPosition=bottom;verticalAlign=top;html=1;shape=mxgraph.flowchart.summing_function;shadow=0;glass=0;sketch=0;strokeColor=#d6b656;fontSize=9;fillColor=#fff2cc;" parent="1" vertex="1">
          <mxGeometry x="400" y="565.5" width="10" height="10" as="geometry" />
        </mxCell>
        <mxCell id="eN-WV_VvRqyreEzH0uXg-101" value="Att2" style="text;html=1;strokeColor=none;fillColor=none;align=center;verticalAlign=middle;whiteSpace=wrap;rounded=0;shadow=0;glass=0;dashed=1;sketch=0;fontSize=9;" parent="1" vertex="1">
          <mxGeometry x="140" y="560" width="40" height="20" as="geometry" />
        </mxCell>
        <mxCell id="eN-WV_VvRqyreEzH0uXg-102" value="FC" style="text;html=1;strokeColor=none;fillColor=none;align=center;verticalAlign=middle;whiteSpace=wrap;rounded=0;shadow=0;glass=0;dashed=1;sketch=0;fontSize=9;" parent="1" vertex="1">
          <mxGeometry x="135" y="604" width="50" height="20" as="geometry" />
        </mxCell>
        <mxCell id="eN-WV_VvRqyreEzH0uXg-108" style="edgeStyle=elbowEdgeStyle;rounded=0;orthogonalLoop=1;jettySize=auto;html=1;entryX=0;entryY=0.5;entryDx=0;entryDy=0;entryPerimeter=0;startArrow=none;startFill=0;endArrow=none;endFill=0;fontSize=9;fillColor=#ffe6cc;strokeColor=#d79b00;" parent="1" source="eN-WV_VvRqyreEzH0uXg-66" target="eN-WV_VvRqyreEzH0uXg-98" edge="1">
          <mxGeometry relative="1" as="geometry">
            <Array as="points">
              <mxPoint x="270" y="530" />
            </Array>
          </mxGeometry>
        </mxCell>
        <mxCell id="eN-WV_VvRqyreEzH0uXg-110" style="edgeStyle=elbowEdgeStyle;rounded=0;orthogonalLoop=1;jettySize=auto;html=1;entryX=0.145;entryY=0.145;entryDx=0;entryDy=0;entryPerimeter=0;startArrow=none;startFill=0;endArrow=none;endFill=0;fontSize=9;fillColor=#ffe6cc;strokeColor=#d79b00;" parent="1" source="eN-WV_VvRqyreEzH0uXg-67" target="eN-WV_VvRqyreEzH0uXg-98" edge="1">
          <mxGeometry relative="1" as="geometry" />
        </mxCell>
        <mxCell id="eN-WV_VvRqyreEzH0uXg-111" style="edgeStyle=elbowEdgeStyle;rounded=0;orthogonalLoop=1;jettySize=auto;html=1;entryX=0.855;entryY=0.145;entryDx=0;entryDy=0;entryPerimeter=0;startArrow=none;startFill=0;endArrow=none;endFill=0;fontSize=9;fillColor=#ffe6cc;strokeColor=#d79b00;" parent="1" source="eN-WV_VvRqyreEzH0uXg-68" target="eN-WV_VvRqyreEzH0uXg-98" edge="1">
          <mxGeometry relative="1" as="geometry" />
        </mxCell>
        <mxCell id="eN-WV_VvRqyreEzH0uXg-112" style="edgeStyle=elbowEdgeStyle;rounded=0;orthogonalLoop=1;jettySize=auto;html=1;startArrow=none;startFill=0;endArrow=none;endFill=0;fontSize=9;fillColor=#ffe6cc;strokeColor=#d79b00;" parent="1" source="eN-WV_VvRqyreEzH0uXg-69" edge="1">
          <mxGeometry relative="1" as="geometry">
            <mxPoint x="410" y="570" as="targetPoint" />
            <Array as="points">
              <mxPoint x="550" y="530" />
            </Array>
          </mxGeometry>
        </mxCell>
        <mxCell id="eN-WV_VvRqyreEzH0uXg-116" value="" style="rounded=1;whiteSpace=wrap;html=1;shadow=0;glass=0;sketch=0;fontSize=9;dashed=1;strokeColor=#BABABA;" parent="1" vertex="1">
          <mxGeometry x="190" y="643" width="430" height="27" as="geometry" />
        </mxCell>
        <mxCell id="eN-WV_VvRqyreEzH0uXg-118" value="Classification" style="text;html=1;strokeColor=none;fillColor=none;align=center;verticalAlign=middle;whiteSpace=wrap;rounded=0;shadow=0;glass=0;dashed=1;sketch=0;fontSize=9;" parent="1" vertex="1">
          <mxGeometry x="125" y="643" width="60" height="20" as="geometry" />
        </mxCell>
        <mxCell id="eN-WV_VvRqyreEzH0uXg-120" value="" style="shape=cube;whiteSpace=wrap;html=1;boundedLbl=1;backgroundOutline=1;darkOpacity=0.05;darkOpacity2=0.1;shadow=0;glass=0;sketch=0;strokeColor=#BABABA;fontSize=9;size=10;" parent="1" vertex="1">
          <mxGeometry x="202" y="643.5" width="28.75" height="26.5" as="geometry" />
        </mxCell>
        <mxCell id="eN-WV_VvRqyreEzH0uXg-121" value="" style="shape=cube;whiteSpace=wrap;html=1;boundedLbl=1;backgroundOutline=1;darkOpacity=0.05;darkOpacity2=0.1;shadow=0;glass=0;sketch=0;strokeColor=#BABABA;fontSize=9;size=10;" parent="1" vertex="1">
          <mxGeometry x="260" y="643" width="28.75" height="26.5" as="geometry" />
        </mxCell>
        <mxCell id="eN-WV_VvRqyreEzH0uXg-122" value="" style="shape=cube;whiteSpace=wrap;html=1;boundedLbl=1;backgroundOutline=1;darkOpacity=0.05;darkOpacity2=0.1;shadow=0;glass=0;sketch=0;strokeColor=#BABABA;fontSize=9;size=10;" parent="1" vertex="1">
          <mxGeometry x="498.75" y="643.5" width="28.75" height="26.5" as="geometry" />
        </mxCell>
        <mxCell id="eN-WV_VvRqyreEzH0uXg-123" value="" style="shape=cube;whiteSpace=wrap;html=1;boundedLbl=1;backgroundOutline=1;darkOpacity=0.05;darkOpacity2=0.1;shadow=0;glass=0;sketch=0;strokeColor=#BABABA;fontSize=9;size=10;" parent="1" vertex="1">
          <mxGeometry x="561.25" y="643.5" width="28.75" height="26.5" as="geometry" />
        </mxCell>
        <mxCell id="eN-WV_VvRqyreEzH0uXg-124" value="" style="shape=cube;whiteSpace=wrap;html=1;boundedLbl=1;backgroundOutline=1;darkOpacity=0.05;darkOpacity2=0.1;shadow=0;glass=0;sketch=0;strokeColor=#BABABA;fontSize=9;size=10;" parent="1" vertex="1">
          <mxGeometry x="320" y="643.5" width="28.75" height="26.5" as="geometry" />
        </mxCell>
        <mxCell id="eN-WV_VvRqyreEzH0uXg-125" value="" style="shape=cube;whiteSpace=wrap;html=1;boundedLbl=1;backgroundOutline=1;darkOpacity=0.05;darkOpacity2=0.1;shadow=0;glass=0;sketch=0;strokeColor=#BABABA;fontSize=9;size=10;" parent="1" vertex="1">
          <mxGeometry x="381.25" y="643" width="28.75" height="26.5" as="geometry" />
        </mxCell>
        <mxCell id="eN-WV_VvRqyreEzH0uXg-126" value="" style="shape=cube;whiteSpace=wrap;html=1;boundedLbl=1;backgroundOutline=1;darkOpacity=0.05;darkOpacity2=0.1;shadow=0;glass=0;sketch=0;strokeColor=#BABABA;fontSize=9;size=10;" parent="1" vertex="1">
          <mxGeometry x="440" y="643.5" width="31" height="26.5" as="geometry" />
        </mxCell>
        <mxCell id="eN-WV_VvRqyreEzH0uXg-128" value="Preprocessing" style="text;html=1;strokeColor=none;fillColor=none;align=center;verticalAlign=middle;whiteSpace=wrap;rounded=0;shadow=0;glass=0;dashed=1;sketch=0;fontSize=9;" parent="1" vertex="1">
          <mxGeometry x="111" y="230" width="79" height="20" as="geometry" />
        </mxCell>
        <mxCell id="eN-WV_VvRqyreEzH0uXg-129" value="Input" style="text;html=1;strokeColor=none;fillColor=none;align=center;verticalAlign=middle;whiteSpace=wrap;rounded=0;shadow=0;glass=0;dashed=1;sketch=0;fontSize=9;" parent="1" vertex="1">
          <mxGeometry x="115.5" y="140" width="79" height="20" as="geometry" />
        </mxCell>
        <mxCell id="eN-WV_VvRqyreEzH0uXg-132" style="edgeStyle=none;rounded=0;orthogonalLoop=1;jettySize=auto;html=1;entryX=0.5;entryY=0;entryDx=0;entryDy=0;startArrow=none;startFill=0;endArrow=classic;endFill=1;fontSize=9;" parent="1" source="eN-WV_VvRqyreEzH0uXg-130" target="eN-WV_VvRqyreEzH0uXg-80" edge="1">
          <mxGeometry relative="1" as="geometry" />
        </mxCell>
        <mxCell id="eN-WV_VvRqyreEzH0uXg-130" value="" style="rounded=1;whiteSpace=wrap;html=1;shadow=0;glass=0;sketch=0;fontSize=9;dashed=1;strokeColor=#BABABA;" parent="1" vertex="1">
          <mxGeometry x="190" y="219.38" width="430" height="40.62" as="geometry" />
        </mxCell>
        <mxCell id="eN-WV_VvRqyreEzH0uXg-133" value="denoise" style="rounded=1;whiteSpace=wrap;html=1;fillColor=#f5f5f5;strokeColor=#666666;fontColor=#333333;" parent="1" vertex="1">
          <mxGeometry x="217.5" y="225" width="43.37" height="30" as="geometry" />
        </mxCell>
        <mxCell id="eN-WV_VvRqyreEzH0uXg-134" value="segmentation" style="rounded=1;whiteSpace=wrap;html=1;fillColor=#f5f5f5;strokeColor=#666666;fontColor=#333333;" parent="1" vertex="1">
          <mxGeometry x="381.25" y="225" width="80" height="30" as="geometry" />
        </mxCell>
        <mxCell id="eN-WV_VvRqyreEzH0uXg-135" value="encode" style="rounded=1;whiteSpace=wrap;html=1;fillColor=#f5f5f5;strokeColor=#666666;fontColor=#333333;" parent="1" vertex="1">
          <mxGeometry x="300" y="225" width="43.37" height="30" as="geometry" />
        </mxCell>
        <mxCell id="eN-WV_VvRqyreEzH0uXg-136" value="Data Augmentation" style="rounded=1;whiteSpace=wrap;html=1;fillColor=#f5f5f5;strokeColor=#666666;fontColor=#333333;" parent="1" vertex="1">
          <mxGeometry x="510" y="225" width="75.87" height="30" as="geometry" />
        </mxCell>
      </root>
    </mxGraphModel>
  </diagram>
</mxfile>
